<svg width="40" height="40" viewBox="0 0 40 40" fill="none" xmlns="http://www.w3.org/2000/svg">
<path fill-rule="evenodd" clip-rule="evenodd" d="M11.2917 8.74992H28.7083C30.0683 8.74992 31.165 8.74992 32.0533 8.82325C32.97 8.89825 33.7717 9.05659 34.515 9.43659C35.6817 10.0349 36.6317 10.9849 37.23 12.1516C37.61 12.8949 37.7683 13.6983 37.8433 14.6133C37.9167 15.5016 37.9167 16.5983 37.9167 17.9583V18.1566C37.9183 18.7199 37.92 19.3199 37.7033 19.8566C37.5162 20.3171 37.2144 20.7221 36.8267 21.0333C36.6495 21.174 36.4552 21.2916 36.2483 21.3833C36.2433 24.0699 36.21 26.7833 35.9683 29.1099C35.8267 30.4766 35.61 31.7583 35.265 32.8499C34.9267 33.9266 34.425 34.9433 33.6333 35.6483C32.2617 36.8683 30.5333 37.4066 28.3783 37.6649C26.2617 37.9166 23.5483 37.9166 20.085 37.9166H19.915C16.4517 37.9166 13.7383 37.9166 11.6217 37.6633C9.465 37.4066 7.73834 36.8683 6.36667 35.6483C5.57334 34.9449 5.07334 33.9266 4.73334 32.8516C4.39 31.7583 4.17334 30.4766 4.03167 29.1099C3.79 26.7849 3.755 24.0699 3.75 21.3816C3.54383 21.2903 3.35006 21.1733 3.17334 21.0333C2.78562 20.7221 2.48384 20.3171 2.29667 19.8566C2.08 19.3199 2.08 18.7199 2.08334 18.1566V17.9583C2.08334 16.5983 2.08334 15.5016 2.15667 14.6133C2.23167 13.6966 2.39 12.8949 2.77 12.1516C3.36771 10.9841 4.31755 10.0343 5.485 9.43659C6.22667 9.05659 7.03 8.89825 7.945 8.82325C8.835 8.74992 9.93167 8.74992 11.2917 8.74992ZM6.25334 22.1816C6.265 24.5766 6.31334 26.8766 6.51834 28.8533C6.65167 30.1366 6.845 31.2316 7.11834 32.0999C7.39834 32.9833 7.72 33.5083 8.02667 33.7799C8.85167 34.5133 9.99 34.9516 11.9183 35.1799C13.8683 35.4133 16.4333 35.4166 20 35.4166C23.5667 35.4166 26.13 35.4149 28.0817 35.1816C30.01 34.9516 31.1483 34.5116 31.9733 33.7799C32.2783 33.5083 32.6017 32.9833 32.88 32.0999C33.1533 31.2333 33.3483 30.1366 33.4817 28.8533C33.6867 26.8766 33.735 24.5749 33.7467 22.1816L25.4167 24.6799V25.2699C25.4167 26.1199 24.8983 26.8866 24.1067 27.2033L22.94 27.6699C21.0527 28.4248 18.9473 28.4248 17.06 27.6699L15.8933 27.2033C15.5068 27.0487 15.1755 26.782 14.942 26.4374C14.7085 26.0928 14.5836 25.6862 14.5833 25.2699V24.6799L6.25334 22.1816ZM14.5833 22.0699L5.595 19.3733C5.35372 19.3049 5.11471 19.2287 4.87834 19.1449C4.83019 19.1266 4.78291 19.106 4.73667 19.0833C4.68301 19.0392 4.64118 18.9825 4.615 18.9183C4.60602 18.868 4.59934 18.8174 4.595 18.7666C4.583 18.5157 4.57911 18.2644 4.58334 18.0133C4.58334 16.5866 4.58334 15.5916 4.64834 14.8166C4.71 14.0566 4.82667 13.6216 4.995 13.2916C5.35329 12.5908 5.92296 12.0206 6.62334 11.6616C6.955 11.4933 7.39 11.3783 8.15 11.3149C8.925 11.2516 9.91834 11.2499 11.3467 11.2499H28.6533C30.08 11.2499 31.075 11.2499 31.85 11.3149C32.6083 11.3766 33.045 11.4933 33.375 11.6616C34.075 12.0199 34.645 12.5899 35.005 13.2916C35.1733 13.6216 35.2883 14.0583 35.3517 14.8166C35.415 15.5916 35.4167 16.5866 35.4167 18.0133C35.4167 18.3883 35.4167 18.6049 35.4033 18.7666C35.3996 18.8174 35.3934 18.868 35.385 18.9183C35.3584 18.9827 35.3159 19.0394 35.2617 19.0833C35.216 19.1059 35.1693 19.1265 35.1217 19.1449C34.8853 19.2287 34.6463 19.3049 34.405 19.3733L25.4167 22.0699V21.6666C25.4167 20.5166 24.4833 19.5833 23.3333 19.5833H16.6667C15.5167 19.5833 14.5833 20.5166 14.5833 21.6666V22.0699ZM17.0833 22.0833V24.9866L17.9883 25.3483C19.2797 25.8648 20.7203 25.8648 22.0117 25.3483L22.9167 24.9866V22.0833H17.0833ZM20 4.58325C19.2243 4.58302 18.4677 4.82332 17.8343 5.27106C17.2009 5.7188 16.7219 6.35194 16.4633 7.08325C16.3489 7.39063 16.1183 7.64074 15.8212 7.77964C15.5241 7.91854 15.1843 7.93511 14.8751 7.82577C14.5659 7.71643 14.312 7.48994 14.1683 7.19515C14.0245 6.90036 14.0024 6.56088 14.1067 6.24992C14.5376 5.03102 15.3358 3.97569 16.3914 3.22927C17.447 2.48284 18.708 2.08203 20.0008 2.08203C21.2937 2.08203 22.5547 2.48284 23.6103 3.22927C24.6659 3.97569 25.4641 5.03102 25.895 6.24992C26.0055 6.56265 25.9873 6.90648 25.8443 7.20575C25.7013 7.50503 25.4452 7.73525 25.1325 7.84575C24.8198 7.95626 24.4759 7.93801 24.1767 7.79501C23.8774 7.65201 23.6472 7.39599 23.5367 7.08325C23.2781 6.35194 22.7991 5.7188 22.1657 5.27106C21.5323 4.82332 20.7757 4.58302 20 4.58325Z" fill="url(#paint0_linear_1_232)"/>
<defs>
<linearGradient id="paint0_linear_1_232" x1="19.9998" y1="2.08203" x2="19.9998" y2="37.9166" gradientUnits="userSpaceOnUse">
<stop stop-color="#fff"/>
<stop offset="1" stop-color="#fff"/>
</linearGradient>
</defs>
</svg>
