<svg width="40" height="40" viewBox="0 0 40 40" fill="none" xmlns="http://www.w3.org/2000/svg">
<path d="M35 20V27.5H5V7.5H20V5H5C4.33696 5 3.70107 5.26339 3.23223 5.73223C2.76339 6.20107 2.5 6.83696 2.5 7.5V27.5C2.5 28.163 2.76339 28.7989 3.23223 29.2678C3.70107 29.7366 4.33696 30 5 30H15V35H10V37.5H30V35H25V30H35C35.663 30 36.2989 29.7366 36.7678 29.2678C37.2366 28.7989 37.5 28.163 37.5 27.5V20H35ZM22.5 35H17.5V30H22.5V35Z" fill="url(#paint0_linear_1_907)"/>
<path d="M26.25 18.75L20 12.55L21.9875 10.5875L26.25 14.8125L35.5125 5.625L37.5 7.6L26.25 18.75Z" fill="url(#paint1_linear_1_907)"/>
<defs>
<linearGradient id="paint0_linear_1_907" x1="20" y1="5" x2="20" y2="37.5" gradientUnits="userSpaceOnUse">
<stop stop-color="#fff"/>
<stop offset="1" stop-color="#fff"/>
</linearGradient>
<linearGradient id="paint1_linear_1_907" x1="28.75" y1="5.625" x2="28.75" y2="18.75" gradientUnits="userSpaceOnUse">
<stop stop-color="#fff"/>
<stop offset="1" stop-color="#fff"/>
</linearGradient>
</defs>
</svg>
