<svg width="40" height="40" viewBox="0 0 40 40" fill="none" xmlns="http://www.w3.org/2000/svg">
<path d="M25 12.5H15V10H25V12.5ZM20 35H7.5V30H10V27.5H7.5V21.25H10V18.75H7.5V12.5H10V10H7.5V5H30V26.25H32.5V5C32.5 3.625 31.375 2.5 30 2.5H7.5C6.125 2.5 5 3.625 5 5V10H2.5V12.5H5V18.75H2.5V21.25H5V27.5H2.5V30H5V35C5 36.375 6.125 37.5 7.5 37.5H20V35ZM25 18.75H15V21.25H25V18.75ZM28.75 34L25.5 30.75L23.75 32.5L28.75 37.5L37.5 28.75L35.75 27L28.75 34Z" fill="url(#paint0_linear_1_379)"/>
<defs>
<linearGradient id="paint0_linear_1_379" x1="20" y1="2.5" x2="20" y2="37.5" gradientUnits="userSpaceOnUse">
<stop stop-color="#fff"/>
<stop offset="1" stop-color="#fff"/>
</linearGradient>
</defs>
</svg>
