<svg width="40" height="40" viewBox="0 0 40 40" fill="none" xmlns="http://www.w3.org/2000/svg">
<path d="M7.5 20H15V22.5H7.5V20ZM7.5 15H20V17.5H7.5V15ZM7.5 10H20V12.5H7.5V10Z" fill="url(#paint0_linear_1_365)"/>
<path d="M17.5 32.5H5V7.5H35V20H37.5V7.5C37.5 6.83696 37.2366 6.20107 36.7678 5.73223C36.2989 5.26339 35.663 5 35 5H5C4.33696 5 3.70107 5.26339 3.23223 5.73223C2.76339 6.20107 2.5 6.83696 2.5 7.5V32.5C2.5 33.163 2.76339 33.7989 3.23223 34.2678C3.70107 34.7366 4.33696 35 5 35H17.5V32.5Z" fill="url(#paint1_linear_1_365)"/>
<path d="M27.5 31.9875L24.2625 28.75L22.5 30.5125L27.5 35.5125L37.5 25.5125L35.7375 23.75L27.5 31.9875Z" fill="url(#paint2_linear_1_365)"/>
<defs>
<linearGradient id="paint0_linear_1_365" x1="13.75" y1="10" x2="13.75" y2="22.5" gradientUnits="userSpaceOnUse">
<stop stop-color="#fff"/>
<stop offset="1" stop-color="#fff"/>
</linearGradient>
<linearGradient id="paint1_linear_1_365" x1="20" y1="5" x2="20" y2="35" gradientUnits="userSpaceOnUse">
<stop stop-color="#fff"/>
<stop offset="1" stop-color="#fff"/>
</linearGradient>
<linearGradient id="paint2_linear_1_365" x1="30" y1="23.75" x2="30" y2="35.5125" gradientUnits="userSpaceOnUse">
<stop stop-color="#fff"/>
<stop offset="1" stop-color="#fff"/>
</linearGradient>
</defs>
</svg>
