<svg width="40" height="40" viewBox="0 0 40 40" fill="none" xmlns="http://www.w3.org/2000/svg">
<path d="M4 8C4 6.93913 4.42143 5.92172 5.17157 5.17157C5.92172 4.42143 6.93913 4 8 4H32C33.0609 4 34.0783 4.42143 34.8284 5.17157C35.5786 5.92172 36 6.93913 36 8C36 9.06087 35.5786 10.0783 34.8284 10.8284C34.0783 11.5786 33.0609 12 32 12H8C6.93913 12 5.92172 11.5786 5.17157 10.8284C4.42143 10.0783 4 9.06087 4 8ZM8 6C7.46957 6 6.96086 6.21071 6.58579 6.58579C6.21071 6.96086 6 7.46957 6 8C6 8.53043 6.21071 9.03914 6.58579 9.41421C6.96086 9.78929 7.46957 10 8 10H32C32.5304 10 33.0391 9.78929 33.4142 9.41421C33.7893 9.03914 34 8.53043 34 8C34 7.46957 33.7893 6.96086 33.4142 6.58579C33.0391 6.21071 32.5304 6 32 6H8ZM8 20C8 18.9391 8.42143 17.9217 9.17157 17.1716C9.92172 16.4214 10.9391 16 12 16H28C29.0609 16 30.0783 16.4214 30.8284 17.1716C31.5786 17.9217 32 18.9391 32 20C32 21.0609 31.5786 22.0783 30.8284 22.8284C30.0783 23.5786 29.0609 24 28 24H12C10.9391 24 9.92172 23.5786 9.17157 22.8284C8.42143 22.0783 8 21.0609 8 20ZM12 18C11.4696 18 10.9609 18.2107 10.5858 18.5858C10.2107 18.9609 10 19.4696 10 20C10 20.5304 10.2107 21.0391 10.5858 21.4142C10.9609 21.7893 11.4696 22 12 22H28C28.5304 22 29.0391 21.7893 29.4142 21.4142C29.7893 21.0391 30 20.5304 30 20C30 19.4696 29.7893 18.9609 29.4142 18.5858C29.0391 18.2107 28.5304 18 28 18H12ZM16 28C14.9391 28 13.9217 28.4214 13.1716 29.1716C12.4214 29.9217 12 30.9391 12 32C12 33.0609 12.4214 34.0783 13.1716 34.8284C13.9217 35.5786 14.9391 36 16 36H24C25.0609 36 26.0783 35.5786 26.8284 34.8284C27.5786 34.0783 28 33.0609 28 32C28 30.9391 27.5786 29.9217 26.8284 29.1716C26.0783 28.4214 25.0609 28 24 28H16ZM14 32C14 31.4696 14.2107 30.9609 14.5858 30.5858C14.9609 30.2107 15.4696 30 16 30H24C24.5304 30 25.0391 30.2107 25.4142 30.5858C25.7893 30.9609 26 31.4696 26 32C26 32.5304 25.7893 33.0391 25.4142 33.4142C25.0391 33.7893 24.5304 34 24 34H16C15.4696 34 14.9609 33.7893 14.5858 33.4142C14.2107 33.0391 14 32.5304 14 32Z" fill="url(#paint0_linear_1_780)"/>
<defs>
<linearGradient id="paint0_linear_1_780" x1="20" y1="4" x2="20" y2="36" gradientUnits="userSpaceOnUse">
<stop stop-color="#fff"/>
<stop offset="1" stop-color="#fff"/>
</linearGradient>
</defs>
</svg>
