<?xml version="1.0" ?><svg class="svg-icon" style="width: 16px; height: 16px;vertical-align: middle;fill: currentColor;overflow: hidden;" version="1.1" viewBox="0 0 1024 1024" xmlns="http://www.w3.org/2000/svg"><path d="M214.4 307.2l-105.6 170.8h-10.8c-12.4-27.2-18.8-56.8-18.8-88V307.2h135.2zM400.8 307.2v2l-104.4 168.8H166.4L272 307.2zM324.8 478l76-122.8v34.8c0 30.8-6.8 60.8-18.8 88H324.8z" fill="#E0E0E0"/><path d="M480 293.2H0V222.8h480v70.4zM12 280.8h456V234.8H12v46zM480 999.2H0v-74.4h480v74.4z m-468-12h456v-50H12v50z" fill="#4A555F"/><path d="M427.2 936.8H52.8v-109.2c0-88.8 48.8-170 127.6-211.2 2.8-1.6 4.4-4 4.4-7.2s-1.6-6-4.4-7.2c-78.8-41.2-127.6-122.4-127.6-211.2V280.8h374.8v109.2c0 88.8-48.8 170-127.6 211.2-2.8 1.6-4.4 4-4.4 7.2s1.6 6 4.4 7.2c78.8 41.2 127.6 122.4 127.6 211.2v110z m-362.4-12h350.4v-97.2c0-84.4-46.4-161.2-121.2-200.4-6.8-3.6-10.8-10.4-10.8-18s4-14.4 10.8-18c74.8-39.2 121.2-116 121.2-200.4V293.2H64.8v97.2c0 84.4 46.4 161.2 121.2 200.4 6.8 3.6 10.8 10.4 10.8 18s-4 14.4-10.8 18c-74.8 39.2-121.2 116-121.2 200.4v97.6z" fill="#4A555F"/><path d="M199.2 635.2l-120 194v-1.6c0-79.2 43.6-151.2 113.6-188 2.4-1.2 4.4-2.8 6.4-4.4zM211.2 608.8v6.8l-1.2 1.6c0.8-2.4 1.2-5.2 1.2-8.4zM129.6 794l81.6-132.4v91.6zM352.8 692.8l-48.4 78-35.6-18v-142.8c0.4 12.4 7.6 23.6 18.4 29.6 26 13.6 48 31.6 65.6 53.2zM400.8 827.6v34.4c0-26.4-14.8-50.4-38.4-62l-47.2-24 45.2-73.2c26 35.6 40.4 79.2 40.4 124.8z" fill="#E0E0E0"/><path d="M407.2 916.8H73.2v-6-48.4c0-28.8 16-54.8 42-67.6l90.4-45.2v-140.4c0-10.8-6-20.4-15.2-25.2-42.8-22.4-77.6-59.2-97.2-103.2l-4-8.8H392l-4 8.8c-20 44-54.4 80.4-97.2 103.2-9.6 4.8-15.2 14.8-15.2 25.2V749.6l90 45.2c25.6 12.8 41.6 38.8 42 67.6l-0.4 54.4z m-322-12.4h309.6v-42.4c0-24-13.6-46-35.2-56.8l-96.8-48.4v-146.4-1.6c0-15.2 8.4-29.2 22-36 37.6-19.6 68.4-51.2 87.6-88.8H107.6c19.2 37.6 50 68.8 87.6 88.8 13.6 7.2 22 20.8 22 36v148l-96.8 48.4c-21.6 10.8-35.2 32.4-35.2 56.8v42.4z" fill="#4A555F"/><path d="M99.6 890v-28c0-18.8 10.4-35.6 27.2-44l104.8-52.4v-156.8c0-20.4-11.2-39.2-29.6-48.8-28-14.8-51.6-36-69.2-62h214.4c-17.6 25.6-41.6 47.2-69.2 62-18 9.6-29.6 28-29.6 48.8v156.8l104.8 52.4c16.8 8.4 27.2 25.2 27.2 44v28.4H99.6z" fill="#F68F6F"/><path d="M765.2 258h52v253.2h-52zM552 443.2l29.6 107.2h31.2l-9.6-107.2z" fill="#F68F6F"/><path d="M762.8 252l-3.6 3.6v258c0.4 0.4 2.8 3.2 3.6 3.6h60.4V252h-60.4z m48 252.8h-39.6V264h39.6v240.8z" fill="#4A555F"/><path d="M762.8 252l-3.6 3.6c-41.2 40-98.4 64.4-155.6 64.4h-84.4l-6 6v117.2l6 6h84.4c58 0 114.8 23.6 155.6 64.4 0.4 0.4 2.8 3.2 3.6 3.6l8.8-6V258l-8.8-6z m-3.6 244.8c-42.4-38.4-98.4-60-155.6-60h-78.4V332h78.4c57.2 0 113.2-21.6 155.6-60v224.8z" fill="#4A555F"/><path d="M525.2 449.2h-10c-17.6 0-32-14.4-32-32V352c0-17.6 14.4-32 32-32h10v129.2zM512.8 332c-10 1.2-17.6 9.6-17.6 19.6v65.2c0 10.4 7.6 18.8 17.6 19.6V332zM619.2 556.4h-42.4l-32.8-119.6h64.4l10.8 119.6z m-33.2-12h20l-8.8-95.2H560l26 95.2zM817.2 436.8h-6V350h6c24 0 43.2 19.6 43.2 43.2s-19.6 43.6-43.2 43.6z m6-74V424c14.4-2.8 25.2-15.6 25.2-30.4s-10.8-28-25.2-30.8z" fill="#4A555F"/><path d="M660.4 670h-6.8l0.4-12h12l0.4 12h-6z m18-0.4l-0.8-12 12-1.2 1.2 12c-4 0.4-8 0.8-12.4 1.2z m-37.2 0c-4-0.4-8.4-0.8-12.4-1.2l1.6-12 12 1.2-1.2 12z m62-2.8l-2-12c4-0.8 8-1.2 11.6-2l2.4 12c-3.6 0.8-7.6 1.2-12 2z m-86.8-0.4c-4-0.8-8-1.6-12.4-2.4l2.4-12c4 0.8 8 1.6 11.6 2l-1.6 12.4z m111.2-4.4l-2.8-12c4-0.8 7.6-2 11.6-3.2l3.6 11.6c-4.4 1.2-8.4 2.4-12.4 3.6z m-135.6-0.4c-4-1.2-8-2-12-3.2l3.6-11.6c4 1.2 7.6 2.4 11.6 3.2l-3.2 11.6z m159.6-6.8l-4-11.6c3.6-1.2 7.6-2.8 11.2-4l4.4 11.2c-3.6 1.6-7.6 3.2-11.6 4.4z m-183.2-0.4c-4-1.2-8-2.8-11.6-4.4l4.4-11.2c3.6 1.6 7.6 2.8 11.2 4.4l-4 11.2z m206.4-8.8l-5.2-11.2c3.6-1.6 7.2-3.2 10.8-5.2l5.6 10.8c-3.6 2-7.6 4-11.2 5.6z m-229.6-0.8c-2-0.8-4.4-2-6.4-3.2l-4.8-2.4 5.6-10.8c1.6 0.8 3.2 1.6 4.4 2.4 2 1.2 4 2 6 2.8l-4.8 11.2z m252-10.4l-6-10.8c3.6-2 6.8-4 10.4-6l6.4 10.4c-3.6 2.4-7.2 4.4-10.8 6.4z m-274.4-0.8c-3.6-2-7.2-4.4-10.8-6.4l6.4-10.4c3.2 2 6.8 4 10.4 6l-6 10.8z m295.6-12.4l-6.8-10c3.2-2.4 6.4-4.8 9.6-6.8l7.2 9.6c-3.2 2.4-6.8 4.8-10 7.2z m-316.4-0.8c-3.6-2.4-6.8-4.8-10-7.2l7.6-9.6 9.6 7.2-7.2 9.6z m336-14.4l-7.6-9.2c3.2-2.4 6-5.2 9.2-8l8 9.2c-3.2 2.8-6.4 5.6-9.6 8z m-356-0.8c-3.2-2.8-6.4-5.6-9.2-8.4l8.4-8.8c2.8 2.8 6 5.2 8.8 8l-8 9.2z m374.8-15.6l-8.4-8.8 8.4-8.4 8.8 8.4c-3.2 2.8-6 5.6-8.8 8.8z m16.8-18.4l-9.2-8c2.4-3.2 5.2-6 7.6-9.2l9.6 7.6c-2.8 2.8-5.6 6.4-8 9.6z m15.2-20l-10-6.8c2.4-3.2 4.4-6.4 6.4-10l10.4 6.4c-2.4 3.6-4.4 7.2-6.8 10.4z m13.2-21.2l-10.4-6c2-3.6 4-6.8 5.6-10.4l10.8 5.6-6 10.8z m11.2-22l-11.2-5.2 4.8-10.8 11.2 4.4c-1.2 4-2.8 8-4.8 11.6z m9.6-23.2l-11.6-4c1.2-3.6 2.4-7.6 3.6-11.2l11.6 3.6c-0.8 4-2.4 8-3.6 11.6z m7.2-23.6l-12-3.2c0.8-4 2-7.6 2.8-11.6l12 2.4c-0.8 4.4-1.6 8.4-2.8 12.4z m5.2-24.4l-12-2c0.8-4 1.2-8 1.6-11.6l12 1.6c-0.4 3.6-1.2 8-1.6 12z m2.8-24.8l-12-0.8c0.4-4 0.4-8 0.4-12l12 0.4c0 4 0 8.4-0.4 12.4z m-11.6-24.8c0-4-0.4-8-0.4-12l12-0.8c0.4 4 0.4 8.4 0.4 12.4l-12 0.4z m-1.6-23.6c-0.4-4-0.8-8-1.6-12l12-2c0.8 4 1.2 8.4 1.6 12.4l-12 1.6z m-3.6-23.6c-0.8-4-1.6-7.6-2.8-11.6l12-2.8c0.8 4 2 8 2.8 12l-12 2.4z m-5.6-23.2c-1.2-3.6-2.4-7.6-3.6-11.2l11.6-4c1.2 4 2.8 8 4 12l-12 3.2z m-8-22.4l-4.8-10.8 11.2-4.8c1.6 3.6 3.2 7.6 4.8 11.6l-11.2 4z m-9.6-22c-1.6-3.6-3.6-7.2-5.6-10.4l10.8-6c2 3.6 4 7.2 6 11.2l-11.2 5.2z m-11.6-20.4c-2-3.2-4.4-6.8-6.4-10l10-6.8c2.4 3.6 4.8 6.8 6.8 10.4l-10.4 6.4z m-13.6-20c-2.4-3.2-4.8-6.4-7.2-9.2l9.2-7.6c2.8 3.2 5.2 6.4 7.6 9.6l-9.6 7.2z m-15.2-18.4c-2.8-2.8-5.6-6-8.4-8.8l8.8-8.4c2.8 2.8 6 6 8.4 9.2l-8.8 8z m-16.8-16.8c-2.8-2.8-6-5.2-8.8-8l8-9.2c3.2 2.8 6.4 5.6 9.2 8.4l-8.4 8.8z m-18-15.2l-9.6-7.2 6.8-10c3.6 2.4 6.8 4.8 10 7.2l-7.2 10z m-322-1.6l-7.2-9.6c3.2-2.4 6.8-4.8 10-7.2l6.8 10c-3.2 2-6.4 4.4-9.6 6.8z m302.4-12c-3.2-2-6.8-4-10.4-6l6-10.4c3.6 2 7.2 4.4 10.8 6.4l-6.4 10z m-282.8-1.6l-6.4-10.4c3.6-2 7.2-4.4 10.8-6.4l6 10.8c-3.6 2-6.8 4-10.4 6z m262-10.4l-4.8-2.4c-2-0.8-4-2-6-2.8l5.2-11.2c2 0.8 4 2 6 2.8 1.6 0.8 3.2 1.6 5.2 2.4l-5.6 11.2z m-241.2-1.2L536 144c3.6-2 7.6-3.6 11.2-5.2l4.8 11.2-10.8 4.8z m219.6-8.8c-3.6-1.6-7.6-2.8-11.2-4.4l4-11.6c4 1.2 8 2.8 11.6 4.4l-4.4 11.6z m-197.6-0.8l-4.4-11.2c4-1.6 7.6-2.8 11.6-4.4l4 11.6c-4 1.2-7.6 2.4-11.2 4z m175.2-7.2c-3.6-1.2-7.6-2.4-11.6-3.2l3.2-12c4 1.2 8 2 12 3.2l-3.6 12z m-152.8-0.4l-3.6-11.6c4-1.2 8-2.4 12-3.2l2.8 12c-3.6 0.4-7.6 1.6-11.2 2.8z m129.6-5.6c-4-0.8-8-1.6-11.6-2l2-12c4 0.8 8.4 1.6 12.4 2.4l-2.8 11.6z m-106.4-0.4l-2.4-12c4-0.8 8.4-1.6 12.4-2l2 12c-4.4 0.8-8.4 1.2-12 2z m82.8-3.2l-12-1.2 0.8-12c4 0.4 8.4 0.8 12.4 1.2l-1.2 12z m-59.2-0.4l-1.2-12c4-0.4 8.4-0.8 12.4-1.2l0.8 12c-4.4 0.4-8.4 0.8-12 1.2z m35.6-1.6h-12l-0.4-12h12.4v12z" fill="#4A555F"/><path d="M660.4 24.8c-128.8 0-241.6 66.8-306.4 167.6h68C478.4 123.6 564.4 80 660.4 80c170.4 0 308.8 138.4 308.8 308.8s-138.4 308.8-308.8 308.8c-106.8 0-200.8-54.4-256.4-136.8-10 12-23.6 26.8-39.6 39.6 66 92 174 152.4 296 152.4 200.8 0 363.6-162.8 363.6-363.6 0-201.6-162.8-364.4-363.6-364.4z" fill="#71CDE1"/></svg>