<?xml version="1.0" ?><svg height="48" id="svg6485" version="1.1" viewBox="0 0 48 48" width="48" xmlns="http://www.w3.org/2000/svg" xmlns:cc="http://creativecommons.org/ns#" xmlns:dc="http://purl.org/dc/elements/1.1/" xmlns:inkscape="http://www.inkscape.org/namespaces/inkscape" xmlns:rdf="http://www.w3.org/1999/02/22-rdf-syntax-ns#" xmlns:sodipodi="http://sodipodi.sourceforge.net/DTD/sodipodi-0.dtd" xmlns:svg="http://www.w3.org/2000/svg"><defs id="defs6487"/><g id="layer1" transform="translate(0,-1004.3622)"><text id="text4366" style="font-style:normal;font-weight:normal;font-size:11.25px;line-height:125%;font-family:Sans;letter-spacing:0px;word-spacing:0px;fill:#000000;fill-opacity:1;stroke:none;stroke-width:1px;stroke-linecap:butt;stroke-linejoin:miter;stroke-opacity:1" x="12" xml:space="preserve" y="1036.3622"><tspan id="tspan4368" x="12" y="1036.3622"/></text><g id="text4981" style="font-style:normal;font-variant:normal;font-weight:normal;font-stretch:normal;font-size:12.37186241px;line-height:125%;font-family:'Roboto Condensed';-inkscape-font-specification:'Roboto Condensed, ';letter-spacing:0px;word-spacing:0px;fill:#000000;fill-opacity:1;stroke:none;stroke-width:1px;stroke-linecap:butt;stroke-linejoin:miter;stroke-opacity:1" transform="scale(1.1477838,0.87124422)"/><g id="g5535"><g id="g5984" transform="translate(587.02794,206.17156)"><path d="m -563.02794,798.19064 c -13.25187,0 -24,10.74825 -24,24 0,13.2519 10.74813,24 24,24 13.25187,0 24,-10.7481 24,-24 0,-13.25175 -10.74813,-24 -24,-24 z m 0,1.5 c 12.42359,0 22.5,10.07655 22.5,22.5 0,12.4236 -10.07641,22.5 -22.5,22.5 -12.42359,0 -22.5,-10.0764 -22.5,-22.5 0,-12.42345 10.07641,-22.5 22.5,-22.5 z" id="path5785" style="color:#000000;font-style:normal;font-variant:normal;font-weight:normal;font-stretch:normal;font-size:medium;line-height:normal;font-family:sans-serif;text-indent:0;text-align:start;text-decoration:none;text-decoration-line:none;text-decoration-style:solid;text-decoration-color:#000000;letter-spacing:normal;word-spacing:normal;text-transform:none;direction:ltr;block-progression:tb;writing-mode:lr-tb;baseline-shift:baseline;text-anchor:start;white-space:normal;clip-rule:nonzero;display:inline;overflow:visible;visibility:visible;opacity:1;isolation:auto;mix-blend-mode:normal;color-interpolation:sRGB;color-interpolation-filters:linearRGB;solid-color:#000000;solid-opacity:1;fill:#ff2727;fill-opacity:1;fill-rule:nonzero;stroke:none;stroke-width:0.99999994;stroke-linecap:round;stroke-linejoin:round;stroke-miterlimit:4;stroke-dasharray:none;stroke-dashoffset:0;stroke-opacity:1;color-rendering:auto;image-rendering:auto;shape-rendering:auto;text-rendering:auto;enable-background:accumulate"/><path d="m -563.02794,802.44059 c -10.90519,0 -19.75,8.84505 -19.75,19.75005 0,10.90515 8.84481,19.75005 19.75,19.75005 10.90519,0 19.75,-8.8449 19.75,-19.75005 0,-10.905 -8.84481,-19.75005 -19.75,-19.75005 z" id="path5787" style="color:#000000;font-style:normal;font-variant:normal;font-weight:normal;font-stretch:normal;font-size:medium;line-height:normal;font-family:sans-serif;text-indent:0;text-align:start;text-decoration:none;text-decoration-line:none;text-decoration-style:solid;text-decoration-color:#000000;letter-spacing:normal;word-spacing:normal;text-transform:none;direction:ltr;block-progression:tb;writing-mode:lr-tb;baseline-shift:baseline;text-anchor:start;white-space:normal;clip-rule:nonzero;display:inline;overflow:visible;visibility:visible;opacity:1;isolation:auto;mix-blend-mode:normal;color-interpolation:sRGB;color-interpolation-filters:linearRGB;solid-color:#000000;solid-opacity:1;fill:#ff2727;fill-opacity:1;fill-rule:nonzero;stroke:none;stroke-width:0.99999994;stroke-linecap:round;stroke-linejoin:round;stroke-miterlimit:4;stroke-dasharray:none;stroke-dashoffset:0;stroke-opacity:1;color-rendering:auto;image-rendering:auto;shape-rendering:auto;text-rendering:auto;enable-background:accumulate"/><path d="m -563.02794,802.44059 c -10.90519,0 -19.75,8.84505 -19.75,19.75005 0,5.4579 2.21752,10.39755 5.798,13.9728 l 27.92477,-27.92475 c -3.57517,-3.5805 -8.51487,-5.7981 -13.97277,-5.7981 z" id="path5789" style="color:#000000;clip-rule:nonzero;display:inline;overflow:visible;visibility:visible;opacity:1;isolation:auto;mix-blend-mode:normal;color-interpolation:sRGB;color-interpolation-filters:linearRGB;solid-color:#000000;solid-opacity:1;fill:#ce2020;fill-opacity:1;fill-rule:nonzero;stroke:none;stroke-width:1.5;stroke-linecap:butt;stroke-linejoin:miter;stroke-miterlimit:4;stroke-dasharray:none;stroke-dashoffset:0;stroke-opacity:1;color-rendering:auto;image-rendering:auto;shape-rendering:auto;text-rendering:auto;enable-background:accumulate"/></g><g id="g4841"><path d="M 23.992188,9.9980469 C 23.716816,10.002358 23.496767,10.228519 23.5,10.503906 l 0,4.519532 c -4.565132,0.2522 -8.222415,3.909509 -8.474609,8.474609 l -4.519532,0 c -0.6761613,-0.0096 -0.6761613,1.009563 0,1 l 4.519532,0 c 0.252704,4.5647 3.909806,8.222509 8.474609,8.474609 l 0,4.521485 c -0.0096,0.676161 1.009563,0.676161 1,0 l 0,-4.521485 c 4.564803,-0.2521 8.221906,-3.909909 8.474609,-8.474609 l 4.519532,0 c 0.676161,0.0096 0.676161,-1.009563 0,-1 l -4.519532,0 C 32.722416,18.932947 29.065132,15.275638 24.5,15.023438 l 0,-4.519532 c 0.0033,-0.281503 -0.226324,-0.5102484 -0.507812,-0.5058591 z M 24,15.998047 l 0.0078,0 c 4.413991,0 7.9816,3.567969 7.992188,7.980469 -5.09e-4,0.01302 -5.09e-4,0.02605 0,0.03906 -0.01061,4.415 -3.582383,7.980469 -8,7.980469 l -0.0078,0 c -4.414647,0 -7.982635,-3.569022 -7.992188,-7.982422 0.0011,-0.01234 0.0018,-0.02472 0.002,-0.03711 C 16.012603,19.563416 19.5824,15.998047 24,15.998047 Z M 25.484375,17.5 c -0.155646,0.005 -0.300061,0.0823 -0.390625,0.208984 l -5,7 c -0.234069,0.330487 0.0013,0.787591 0.40625,0.789063 l 2.390625,0 -0.880859,4.402344 c -0.103658,0.526846 0.582793,0.824457 0.896484,0.388671 l 5,-7 C 28.142902,22.958294 27.906708,22.498397 27.5,22.498047 l -2.390625,0 0.880859,-4.400391 C 26.053201,17.782077 25.806021,17.490041 25.484375,17.5 Z m -0.931641,2.683594 -0.542968,2.716797 c -0.06154,0.309218 0.174952,0.597531 0.490234,0.597656 l 2.029297,0 -3.082031,4.316406 0.542968,-2.716797 C 24.0532,24.787732 23.816255,24.497924 23.5,24.498047 l -2.029297,0 z" id="circle4922" style="color:#000000;font-style:normal;font-variant:normal;font-weight:normal;font-stretch:normal;font-size:medium;line-height:normal;font-family:sans-serif;text-indent:0;text-align:start;text-decoration:none;text-decoration-line:none;text-decoration-style:solid;text-decoration-color:#000000;letter-spacing:normal;word-spacing:normal;text-transform:none;direction:ltr;block-progression:tb;writing-mode:lr-tb;baseline-shift:baseline;text-anchor:start;white-space:normal;clip-rule:nonzero;display:inline;overflow:visible;visibility:visible;opacity:1;isolation:auto;mix-blend-mode:normal;color-interpolation:sRGB;color-interpolation-filters:linearRGB;solid-color:#000000;solid-opacity:1;fill:#ffffff;fill-opacity:1;fill-rule:nonzero;stroke:none;stroke-width:1;stroke-linecap:round;stroke-linejoin:round;stroke-miterlimit:4;stroke-dasharray:none;stroke-dashoffset:0;stroke-opacity:1;color-rendering:auto;image-rendering:auto;shape-rendering:auto;text-rendering:auto;enable-background:accumulate" transform="translate(0,1004.3622)"/></g></g></g></svg>