<?xml version="1.0" encoding="UTF-8" standalone="no"?>
<svg
   xmlns:dc="http://purl.org/dc/elements/1.1/"
   xmlns:cc="http://creativecommons.org/ns#"
   xmlns:rdf="http://www.w3.org/1999/02/22-rdf-syntax-ns#"
   xmlns:svg="http://www.w3.org/2000/svg"
   xmlns="http://www.w3.org/2000/svg"
   xmlns:sodipodi="http://sodipodi.sourceforge.net/DTD/sodipodi-0.dtd"
   xmlns:inkscape="http://www.inkscape.org/namespaces/inkscape"
   width="64"
   height="64"
   viewBox="0 0 16.933333 16.933334"
   version="1.1"
   id="svg8"
   inkscape:version="0.92.3 (2405546, 2018-03-11)"
   sodipodi:docname="28-Success.svg"
   inkscape:export-filename="/home/wanzabuyumna/@WANZ_DESIGN/NICON STUDIO MAGANG/Style Line/Style Line/Icon 8/Icon 8.png"
   inkscape:export-xdpi="96"
   inkscape:export-ydpi="96">
  <defs
     id="defs2" />
  <sodipodi:namedview
     id="base"
     pagecolor="#ffffff"
     bordercolor="#959595"
     borderopacity="1"
     inkscape:pageopacity="0"
     inkscape:pageshadow="2"
     inkscape:zoom="5.6"
     inkscape:cx="57.804503"
     inkscape:cy="11.200189"
     inkscape:document-units="px"
     inkscape:current-layer="layer1"
     inkscape:document-rotation="0"
     showgrid="false"
     units="px"
     inkscape:window-width="1920"
     inkscape:window-height="1040"
     inkscape:window-x="0"
     inkscape:window-y="0"
     inkscape:window-maximized="1"
     inkscape:pagecheckerboard="0" />
  <metadata
     id="metadata5">
    <rdf:RDF>
      <cc:Work
         rdf:about="">
        <dc:format>image/svg+xml</dc:format>
        <dc:type
           rdf:resource="http://purl.org/dc/dcmitype/StillImage" />
      </cc:Work>
    </rdf:RDF>
  </metadata>
  <g
     inkscape:label="28-Success"
     inkscape:groupmode="layer"
     id="layer1">
    <path
       style="opacity:1;fill:#ffca28;fill-opacity:1;stroke:none;stroke-width:0.529167;stroke-linecap:butt;stroke-linejoin:round;stroke-miterlimit:4;stroke-dasharray:none;stroke-dashoffset:0;stroke-opacity:1"
       d="m 10.054166,4.4978614 h 4.7625 c 0.293158,0 0.529166,0.2360083 0.529166,0.5291665 0,0.2931583 -0.236008,0.5291665 -0.529166,0.5291665 h -4.7625 c -0.2931581,0 -0.5291664,-0.2360082 -0.5291664,-0.5291665 0,-0.2931582 0.2360083,-0.5291665 0.5291664,-0.5291665 z"
       id="rect4632"
       inkscape:connector-curvature="0"
       sodipodi:nodetypes="ccccccc" />
    <path
       id="path4579"
       style="opacity:1;fill:#ffca28;fill-opacity:1;stroke:none;stroke-width:0.52916598;stroke-linecap:butt;stroke-linejoin:round;paint-order:stroke fill markers"
       d="m 13.491816,9.8208068 v 0.2335112 c 0,1.852022 0.48532,2.718052 1.5875,3.482168 h -2.6439 -2.6458326 C 10.891763,12.77237 11.377083,11.90634 11.377083,10.054318 V 9.8208068 Z"
       sodipodi:nodetypes="cccccccc"
       inkscape:connector-curvature="0" />
    <path
       style="fill:#ecb200;fill-opacity:1;stroke:none;stroke-width:0.26458332px;stroke-linecap:butt;stroke-linejoin:miter;stroke-opacity:1"
       d="M 12.964583,9.8205892 V 10.31875 c 0,1.058333 -0.108206,2.645833 -2.116666,2.645833 h -0.378789 c -0.175166,0.18465 -0.380583,0.354566 -0.610815,0.519348 0.014973,0.02332 0.01791,0.02753 0.034106,0.05271 h 2.542998 2.643766 c -1.10218,-0.764116 -1.5875,-1.630453 -1.5875,-3.482474 V 9.8205892 Z"
       id="path4583"
       inkscape:connector-curvature="0"
       sodipodi:nodetypes="ccccccccccc" />
    <path
       sodipodi:nodetypes="ccccccccccccc"
       d="m 2.492412,16.139583 c -0.642699,0 -1.252413,-0.524062 -1.160106,-1.160087 l 0.407621,-2.808634 c 0.09231,-0.636027 0.589631,-0.864086 1.160106,-1.160089 L 4.233647,10.3188 5.291973,11.377132 H 5.821135 L 6.87946,10.3188 8.221817,11.010773 c 0.571261,0.294484 1.065693,0.524371 1.160106,1.160089 l 0.417122,2.808634 c 0.09441,0.635716 -0.517407,1.160087 -1.160106,1.160087 z"
       style="fill:#e4eff8;fill-opacity:1;stroke:none;stroke-width:0.52916712;stroke-linecap:round;stroke-linejoin:round"
       id="path4416"
       inkscape:connector-curvature="0" />
    <path
       sodipodi:nodetypes="ccccccc"
       inkscape:connector-curvature="0"
       id="path4418"
       d="m 6.350393,11.90621 -0.529166,0.529167 0.529166,2.116666 H 6.87956 L 6.350393,12.435377 6.87956,11.90621 Z"
       style="fill:#c4dcf0;fill-opacity:1;stroke:none;stroke-width:0.26458332px;stroke-linecap:butt;stroke-linejoin:miter;stroke-opacity:1" />
    <path
       sodipodi:nodetypes="ccccccccccc"
       inkscape:connector-curvature="0"
       id="path4420"
       d="M 4.233727,10.318711 2.899958,11.010657 C 2.329483,11.306661 1.83213,11.534766 1.739822,12.170793 l -0.407727,2.808614 c -0.09231,0.636025 0.517437,1.160136 1.160136,1.160136 h 0.529167 c -0.642699,0 -1.252444,-0.524111 -1.160136,-1.160136 l 0.407727,-2.808614 c 0.09231,-0.636027 0.58966,-0.864132 1.160135,-1.160136 l 0.98547,-0.511079 z"
       style="fill:#f5f9fb;fill-opacity:1;stroke:none;stroke-width:0.52916712;stroke-linecap:round;stroke-linejoin:round" />
    <path
       sodipodi:nodetypes="ccccccccccc"
       inkscape:connector-curvature="0"
       id="path4422"
       d="m 6.87956,10.318711 -0.360185,0.360184 0.643889,0.331762 c 0.571261,0.294485 1.065722,0.524418 1.160135,1.160136 l 0.417546,2.808614 c 0.09441,0.635717 -0.517437,1.160136 -1.160136,1.160136 h 1.058334 c 0.642699,0 1.254547,-0.524419 1.160135,-1.160136 L 9.381733,12.170793 C 9.287323,11.535075 8.792858,11.305142 8.221597,11.010657 Z"
       style="fill:#c4dcf0;fill-opacity:1;stroke:none;stroke-width:0.52916712;stroke-linecap:round;stroke-linejoin:round" />
    <path
       sodipodi:nodetypes="ccccccccc"
       id="path4424"
       d="m 3.439903,10.847969 1.058325,1.322895 0.793745,-0.793732 0.529162,-10e-7 0.793744,0.793731 L 7.673204,10.847969 6.87956,10.389656 H 4.233727 Z"
       style="fill:#549ad4;fill-opacity:1;stroke:none;stroke-width:0.52916712;stroke-linecap:butt;stroke-linejoin:round;stroke-miterlimit:4;stroke-dasharray:none;stroke-opacity:1"
       inkscape:connector-curvature="0" />
    <path
       sodipodi:nodetypes="cccccc"
       inkscape:connector-curvature="0"
       id="path4426"
       d="m 6.145238,11.701055 0.288354,0.288354 c 0.144109,-0.02349 0.282887,-0.06095 0.415479,-0.111621 L 7.67331,10.847877 7.22202,10.587488 c 0,0.359589 -0.607043,0.9877 -1.076782,1.113567 z"
       style="opacity:1;fill:#3588cb;fill-opacity:1;stroke:none;stroke-width:0.52916712;stroke-linecap:butt;stroke-linejoin:round;stroke-miterlimit:4;stroke-dasharray:none;stroke-dashoffset:0;stroke-opacity:1" />
    <path
       sodipodi:nodetypes="ccccccc"
       inkscape:connector-curvature="0"
       id="path4428"
       d="m 4.49831,9.5249606 v 1.0583324 l 0.79375,0.79375 h 0.5271 l 0.795817,-0.79375 V 9.5249606 Z"
       style="opacity:1;fill:#ffbd8d;fill-opacity:1;stroke:none;stroke-width:0.52916664;stroke-linecap:round;stroke-linejoin:round;stroke-miterlimit:4;stroke-dasharray:none;stroke-dashoffset:0;stroke-opacity:1" />
    <path
       sodipodi:nodetypes="cccccc"
       inkscape:connector-curvature="0"
       id="path4430"
       d="m 2.91074,6.8791243 v -0.529039 c 0,-1.4657813 1.180033,-2.6458145 2.645814,-2.6458145 1.46578,0 2.645813,1.1800332 2.645813,2.6458145 v 0.5290419 z"
       style="opacity:1;fill:#427096;fill-opacity:1;stroke:none;stroke-width:0.52916712;stroke-linecap:butt;stroke-linejoin:round;stroke-miterlimit:4;stroke-dasharray:none;stroke-dashoffset:0;stroke-opacity:1" />
    <path
       sodipodi:nodetypes="cccccccc"
       inkscape:connector-curvature="0"
       id="path4432"
       d="m 7.672881,7.6900855 c 0,1.1631518 -0.943823,2.0995551 -2.116174,2.0995551 -1.172351,0 -2.116164,-0.9364033 -2.116164,-2.0995551 V 6.8792484 c 1.290609,0 2.488173,-0.4151719 3.16766,-1.077089 0.0067,0.2994477 0.118178,0.5686371 0.316652,0.7671117 0.198475,0.1984746 0.467664,0.3099765 0.748188,0.3099163 z"
       style="opacity:1;fill:#ffd1b5;fill-opacity:1;stroke:none;stroke-width:0.52916712;stroke-linecap:butt;stroke-linejoin:round;stroke-miterlimit:4;stroke-dasharray:none;stroke-dashoffset:0;stroke-opacity:1" />
    <path
       sodipodi:nodetypes="ccccccc"
       inkscape:connector-curvature="0"
       id="path4434"
       d="m 3.440493,6.8791273 v 0.8108031 c 0,1.1631518 0.943799,2.0996135 2.11615,2.0996135 0.08984,0 0.177749,-0.00741 0.264584,-0.018087 C 4.774937,9.6427852 3.96966,8.7639466 3.96966,7.6899301 V 6.8791273 Z"
       style="opacity:1;fill:#f5f9fb;fill-opacity:1;stroke:none;stroke-width:0.52916712;stroke-linecap:butt;stroke-linejoin:round;stroke-miterlimit:4;stroke-dasharray:none;stroke-dashoffset:0;stroke-opacity:1" />
    <path
       id="path4436"
       d="m 6.61446,5.858001 v 1.8319294 c -5.4e-5,0.9813227 -0.67294,1.7990323 -1.586983,2.0314007 0.169365,0.043055 0.345899,0.068213 0.529166,0.068213 1.172351,0 2.11615,-0.9364617 2.11615,-2.0996135 V 6.8791273 C 7.39227,6.8791876 7.12351,6.7675432 6.925035,6.5690687 6.739259,6.3832923 6.633198,6.1345112 6.61446,5.858001 Z"
       style="opacity:1;fill:#ffb98d;fill-opacity:1;stroke:none;stroke-width:0.52916712;stroke-linecap:butt;stroke-linejoin:round;stroke-miterlimit:4;stroke-dasharray:none;stroke-dashoffset:0;stroke-opacity:1"
       inkscape:connector-curvature="0"
       sodipodi:nodetypes="cccccccc" />
    <path
       sodipodi:nodetypes="cccccccc"
       inkscape:connector-curvature="0"
       id="path4438"
       d="m 4.233727,10.389507 -0.79375,0.45837 1.058333,1.322916 0.294039,-0.294038 -0.632935,-0.791069 C 3.969143,10.847877 4.060134,10.795323 4.112254,10.765234 l 0.650639,-0.375727 z"
       style="fill:#f5f9fb;fill-opacity:1;stroke:none;stroke-width:0.52916712;stroke-linecap:butt;stroke-linejoin:round;stroke-miterlimit:4;stroke-dasharray:none;stroke-opacity:1" />
    <path
       id="path4440"
       d="M 6.350382,11.906221 5.556554,12.700051 4.762725,11.906221 5.29206,11.376886 H 5.821381 Z"
       style="opacity:1;fill:#549ad4;fill-opacity:1;stroke:none;stroke-width:0.52916712;stroke-linecap:butt;stroke-linejoin:round;stroke-miterlimit:4;stroke-dasharray:none;stroke-dashoffset:0;stroke-opacity:1"
       inkscape:connector-curvature="0"
       sodipodi:nodetypes="cccccc" />
    <path
       id="path4442"
       d="m 6.003128,11.558945 c -0.206181,0.3188 -0.49747,0.575936 -0.842326,0.745174 l 0.220142,0.220141 c 0.141276,-0.0068 0.2789,-0.02691 0.411344,-0.05994 l 0.558105,-0.558106 z"
       style="opacity:1;fill:#3588cb;fill-opacity:1;stroke:none;stroke-width:0.52916712;stroke-linecap:butt;stroke-linejoin:round;stroke-miterlimit:4;stroke-dasharray:none;stroke-dashoffset:0;stroke-opacity:1"
       inkscape:connector-curvature="0"
       sodipodi:nodetypes="cccccc" />
    <path
       sodipodi:nodetypes="ccccc"
       inkscape:connector-curvature="0"
       id="path4444"
       d="m 4.776126,14.552083 0.515754,-2.116707 0.529257,9.3e-5 0.529256,2.116576 z"
       style="fill:#549ad4;fill-opacity:1;stroke:none;stroke-width:0.26458332px;stroke-linecap:butt;stroke-linejoin:miter;stroke-opacity:1" />
    <path
       sodipodi:nodetypes="cccccc"
       inkscape:connector-curvature="0"
       id="path4446"
       d="m 5.668264,12.456047 c 0,1.508329 -0.111621,1.579951 -0.784965,1.831413 0,0.174666 -0.01085,0.0838 -0.01085,0.264583 H 6.350396 L 5.82123,12.435377 Z"
       style="fill:#3588cb;fill-opacity:1;stroke:none;stroke-width:0.26458332px;stroke-linecap:butt;stroke-linejoin:miter;stroke-opacity:1" />
    <path
       id="path4448"
       d="M 5.29206,12.435377 4.776329,14.552043 H 5.160802 L 5.676533,12.435377 Z"
       style="fill:#f5f9fb;fill-opacity:1;stroke:none;stroke-width:0.26458332px;stroke-linecap:butt;stroke-linejoin:miter;stroke-opacity:1"
       inkscape:connector-curvature="0"
       sodipodi:nodetypes="ccccc" />
    <path
       id="path4450"
       d="m 6.681122,13.49371 c -0.445482,0 -0.466724,0.713326 -0.859895,0.968933 v 1.6769 H 7.67331 c 0.529156,0 0.529156,-1.5875 0,-1.5875 H 7.144143 V 14.310715 C 7.149143,13.758338 6.945704,13.49371 6.681122,13.49371 Z"
       style="opacity:1;fill:#ffd1b5;fill-opacity:1;stroke:none;stroke-width:0.52916712;stroke-linecap:round;stroke-linejoin:round;stroke-miterlimit:4;stroke-dasharray:none;stroke-dashoffset:0;stroke-opacity:1"
       inkscape:connector-curvature="0"
       sodipodi:nodetypes="cccccccc" />
    <path
       style="opacity:1;fill:#c4dcf0;fill-opacity:1;stroke:none;stroke-width:0.52916664;stroke-linecap:round;stroke-linejoin:round;stroke-miterlimit:4;stroke-dasharray:none;stroke-dashoffset:0;stroke-opacity:1"
       d="m 4.7761259,14.552083 h 1.0451008 v 1.58746 H 4.7761259 Z"
       id="rect4452"
       inkscape:connector-curvature="0"
       sodipodi:nodetypes="ccccc" />
    <path
       id="path4454"
       d="M 6.324038,9.5249606 C 6.210001,10.256548 5.717261,10.858892 5.049697,11.134681 l 0.159164,0.159163 c 0.02794,0.0012 0.05493,0.0057 0.0832,0.0057 0.260162,0 0.508104,-0.04833 0.737939,-0.132809 L 6.614978,10.583309 V 9.5249606 Z"
       style="opacity:1;fill:#ffa465;fill-opacity:1;stroke:none;stroke-width:0.52916712;stroke-linecap:butt;stroke-linejoin:round;stroke-miterlimit:4;stroke-dasharray:none;stroke-dashoffset:0;stroke-opacity:1"
       inkscape:connector-curvature="0"
       sodipodi:nodetypes="cccccccc" />
    <path
       id="path4456"
       d="m 5.556643,3.7041273 c -0.181237,0 -0.358356,0.01832 -0.529166,0.05271 1.210391,0.2439369 2.116666,1.308752 2.116666,2.5931233 V 6.8791273 H 8.202477 V 6.3499606 c 0,-1.4657813 -1.180053,-2.6458333 -2.645834,-2.6458333 z"
       style="opacity:1;fill:#365b7a;fill-opacity:1;stroke:none;stroke-width:0.52916712;stroke-linecap:butt;stroke-linejoin:round;stroke-miterlimit:4;stroke-dasharray:none;stroke-dashoffset:0;stroke-opacity:1"
       inkscape:connector-curvature="0"
       sodipodi:nodetypes="ccccccc" />
    <path
       id="path4458"
       d="m 5.556643,3.7041273 c -1.46578,0 -2.645833,1.180052 -2.645833,2.6458333 V 6.8791273 H 3.439977 V 6.3499606 c 0,-1.3764413 1.040638,-2.5004379 2.38125,-2.6323975 -0.08702,-0.00857 -0.175244,-0.013436 -0.264584,-0.013436 z"
       style="opacity:1;fill:#f5f9fb;fill-opacity:1;stroke:none;stroke-width:0.52916712;stroke-linecap:butt;stroke-linejoin:round;stroke-miterlimit:4;stroke-dasharray:none;stroke-dashoffset:0;stroke-opacity:1"
       inkscape:connector-curvature="0"
       sodipodi:nodetypes="ccccccc" />
    <path
       id="path4460"
       d="m 7.894485,6.8791273 c -0.05101,-6.6e-6 -0.14843,0.021241 -0.221692,0.042375 v 0.7684281 c 0,0.1526638 -0.01716,0.3011705 -0.04806,0.4444175 0.08294,0.051929 0.17502,0.081131 0.269751,0.081132 0.316143,1.3e-6 0.572577,-0.2992249 0.572575,-0.6681761 -2e-6,-0.3689474 -0.256435,-0.6681777 -0.572575,-0.6681763"
       style="opacity:1;fill:#ffb98d;fill-opacity:1;stroke:none;stroke-width:0.52916712;stroke-linecap:butt;stroke-linejoin:round;stroke-miterlimit:4;stroke-dasharray:none;stroke-dashoffset:0;stroke-opacity:1"
       inkscape:connector-curvature="0"
       sodipodi:nodetypes="ccccccc" />
    <path
       inkscape:connector-curvature="0"
       style="opacity:1;fill:#ffd1b5;fill-opacity:1;stroke:none;stroke-width:0.52916712;stroke-linecap:butt;stroke-linejoin:round;stroke-miterlimit:4;stroke-dasharray:none;stroke-dashoffset:0;stroke-opacity:1"
       d="m 3.440493,6.9215023 v 0.7684286 c 0,0.1526637 0.01716,0.3011704 0.04806,0.4444174 -0.08294,0.051929 -0.175019,0.081131 -0.269751,0.081131 -0.316143,1.8e-6 -0.572577,-0.2992245 -0.572574,-0.6681757 2e-6,-0.3689474 0.256435,-0.6681776 0.5725735,-0.6681763 0.051009,-6.6e-6 0.1484295,0.02124 0.2216915,0.042375 z"
       id="path4462"
       sodipodi:nodetypes="ccccccc" />
    <path
       sodipodi:nodetypes="ccccccc"
       inkscape:connector-curvature="0"
       id="path4464"
       d="m 6.681122,13.49371 c -0.110121,0 -0.194283,0.04368 -0.264583,0.113171 0.123478,0.126189 0.201552,0.359044 0.198438,0.703834 v 0.228926 c 0,0.276986 0.264583,0.276986 0.529166,0.276986 V 14.310715 C 7.149143,13.758338 6.945704,13.49371 6.681122,13.49371 Z"
       style="opacity:1;fill:#ffb98d;fill-opacity:1;stroke:none;stroke-width:0.52916712;stroke-linecap:round;stroke-linejoin:round;stroke-miterlimit:4;stroke-dasharray:none;stroke-dashoffset:0;stroke-opacity:1" />
    <path
       id="path4466"
       d="m 7.144143,14.552043 c 0.529156,0 0.529156,1.5875 0,1.5875 H 7.67331 c 0.529156,0 0.529156,-1.5875 0,-1.5875 z"
       style="opacity:1;fill:#ffb98d;fill-opacity:1;stroke:none;stroke-width:0.52916712;stroke-linecap:round;stroke-linejoin:round;stroke-miterlimit:4;stroke-dasharray:none;stroke-dashoffset:0;stroke-opacity:1"
       inkscape:connector-curvature="0"
       sodipodi:nodetypes="ccccc" />
    <path
       id="path4570"
       style="opacity:1;fill:#e4eff8;fill-opacity:1;stroke:none;stroke-width:0.529167;stroke-linecap:round;stroke-linejoin:round;paint-order:stroke fill markers"
       d="m 9.7891864,15.610381 c -0.29294,0 -0.52877,-0.236 -0.52877,-0.529148 v -1.058299 c 0,-0.293148 0.23583,-0.529148 0.52877,-0.529148 h 5.2924596 c 0.29294,0 0.52877,0.236 0.52877,0.529148 v 1.058299 c 0,0.293148 -0.23583,0.529148 -0.52877,0.529148 -1.764153,0 -3.528306,0 -5.2924596,0 z"
       sodipodi:nodetypes="ccccccccc"
       inkscape:connector-curvature="0" />
    <path
       style="fill:#c4dcf0;fill-opacity:1;stroke:none;stroke-width:0.26458332px;stroke-linecap:butt;stroke-linejoin:miter;stroke-opacity:1"
       d="m 14.816666,13.49375 v 0.264583 c 0,1.058333 -1.587499,1.322917 -5.2916661,1.322917 H 9.2604166 c 0,0.293148 0.2357098,0.529166 0.5286499,0.529166 h 0.5296835 4.233333 0.529684 c 0.29294,0 0.528649,-0.236018 0.528649,-0.529166 v -1.058334 c 0,-0.293148 -0.235709,-0.529166 -0.528649,-0.529166 z"
       id="path4572"
       inkscape:connector-curvature="0"
       sodipodi:nodetypes="cccccccccccc" />
    <path
       style="opacity:1;fill:#ffd1b5;fill-opacity:1;stroke:none;stroke-width:0.529167;stroke-linecap:round;stroke-linejoin:round;stroke-miterlimit:4;stroke-dasharray:none;paint-order:stroke fill markers"
       d="m 14.023307,14.55208 c 0.292942,0 0.528775,0.235834 0.528775,0.528775 v 0.529897 c 0,0.292941 -0.235833,0.528775 -0.528775,0.528775 -0.292941,0 -0.528774,-0.235834 -0.528774,-0.528775 v -0.529897 c 0,-0.292941 0.235833,-0.528775 0.528774,-0.528775 z"
       id="rect4551"
       inkscape:connector-curvature="0"
       sodipodi:nodetypes="ccccccc" />
    <path
       style="opacity:1;fill:#ffd1b5;fill-opacity:1;stroke:none;stroke-width:0.529167;stroke-linecap:round;stroke-linejoin:round;stroke-miterlimit:4;stroke-dasharray:none;paint-order:stroke fill markers"
       d="m 12.964975,14.55208 c 0.292941,0 0.528775,0.235834 0.528775,0.528775 v 0.529897 c 0,0.292941 -0.235834,0.528775 -0.528775,0.528775 -0.292941,0 -0.528775,-0.235834 -0.528775,-0.528775 v -0.529897 c 0,-0.292941 0.235834,-0.528775 0.528775,-0.528775 z"
       id="rect4553"
       inkscape:connector-curvature="0"
       sodipodi:nodetypes="ccccccc" />
    <path
       sodipodi:nodetypes="ccccccccc"
       id="path1007"
       d="m 12.964582,15.610927 c 0,0.19593 -0.106544,0.364424 -0.264066,0.455786 0.07799,0.04524 0.167572,0.07286 0.264584,0.07286 0.292942,0 0.52865,-0.235708 0.52865,-0.52865 v -0.5302 c 0,-0.292941 -0.235708,-0.52865 -0.52865,-0.528646 -0.09701,4e-6 -0.186588,0.02763 -0.264584,0.07286 0.157522,0.09136 0.264066,0.259859 0.264066,0.455789 z"
       style="opacity:1;fill:#ffb98d;fill-opacity:1;stroke:none;stroke-width:0.529167;stroke-linecap:round;stroke-linejoin:round;stroke-miterlimit:4;stroke-dasharray:none;paint-order:stroke fill markers"
       inkscape:connector-curvature="0" />
    <path
       style="opacity:1;fill:#ffd1b5;fill-opacity:1;stroke:none;stroke-width:0.529167;stroke-linecap:round;stroke-linejoin:round;stroke-miterlimit:4;stroke-dasharray:none;paint-order:stroke fill markers"
       d="m 11.906641,14.55208 c 0.292942,0 0.528775,0.235834 0.528775,0.528775 v 0.529897 c 0,0.292941 -0.235833,0.528775 -0.528775,0.528775 -0.292941,0 -0.528774,-0.235834 -0.528774,-0.528775 v -0.529897 c 0,-0.292941 0.235833,-0.528775 0.528774,-0.528775 z"
       id="rect4555"
       inkscape:connector-curvature="0"
       sodipodi:nodetypes="ccccccc" />
    <path
       style="opacity:1;fill:#ffd1b5;fill-opacity:1;stroke:none;stroke-width:0.529167;stroke-linecap:round;stroke-linejoin:round;stroke-miterlimit:4;stroke-dasharray:none;paint-order:stroke fill markers"
       d="m 10.848309,14.55208 c 0.292941,0 0.528775,0.235834 0.528775,0.528775 v 0.529897 c 0,0.292941 -0.235834,0.528775 -0.528775,0.528775 -0.292941,0 -0.528775,-0.235834 -0.528775,-0.528775 v -0.529897 c 0,-0.292941 0.235834,-0.528775 0.528775,-0.528775 z"
       id="rect4557"
       inkscape:connector-curvature="0"
       sodipodi:nodetypes="ccccccc" />
    <path
       inkscape:connector-curvature="0"
       style="opacity:1;fill:#ecb200;fill-opacity:1;stroke:none;stroke-width:0.529167;stroke-linecap:butt;stroke-linejoin:round;paint-order:stroke fill markers"
       d="m 11.377083,9.8205892 v 0.2335778 c 0,0.103237 -0.0073,0.192641 -0.01033,0.289904 0.320872,0.15187 0.682009,0.239262 1.066601,0.239262 0.385177,0 0.747433,-0.08747 1.068668,-0.239778 -0.003,-0.0971 -0.01033,-0.186335 -0.01033,-0.289388 V 9.8205892 Z"
       id="path4608"
       sodipodi:nodetypes="cccccccc" />
    <path
       id="path4601"
       style="opacity:1;fill:#ffca28;fill-opacity:1;stroke:none;stroke-width:0.529167;stroke-linecap:butt;stroke-linejoin:round;paint-order:stroke fill markers"
       d="m 14.812973,5.5561946 v 2.2492421 c 0,1.24588 -1.06126,2.2488823 -2.37949,2.2488823 -1.31823,0 -2.37949,-1.0030023 -2.37949,-2.2488823 V 5.5561946 Z"
       sodipodi:nodetypes="cccccc"
       inkscape:connector-curvature="0" />
    <path
       inkscape:connector-curvature="0"
       style="opacity:1;fill:#f5f9fb;fill-opacity:1;stroke:none;stroke-width:0.52916598;stroke-linecap:butt;stroke-linejoin:round;paint-order:stroke fill markers"
       d="m 11.377083,9.8205892 v 0.2335778 c 0,1.852021 -0.48532,2.718358 -1.5874998,3.482474 H 10.31875 c 1.10218,-0.764116 1.5875,-1.630453 1.5875,-3.482474 V 9.8205892 Z"
       id="path4590"
       sodipodi:nodetypes="ccccccc" />
    <path
       inkscape:connector-curvature="0"
       style="opacity:1;fill:#ecb200;fill-opacity:1;stroke:none;stroke-width:0.529167;stroke-linecap:butt;stroke-linejoin:round;paint-order:stroke fill markers"
       d="m 13.754716,5.5562499 v 2.2489583 c 0,1.0737064 -0.788921,1.9651993 -1.850533,2.1915975 0.170353,0.036357 0.346855,0.057361 0.529167,0.057361 1.318229,0 2.379699,-1.0030793 2.379699,-2.2489594 v -2.248958 z"
       id="path4605"
       sodipodi:nodetypes="ccccccc" />
    <path
       inkscape:connector-curvature="0"
       style="opacity:1;fill:#ecb200;fill-opacity:1;stroke:none;stroke-width:0.529167;stroke-linecap:butt;stroke-linejoin:round;paint-order:stroke fill markers"
       d="m 10.054167,5.5562499 v 0.5291667 h 4.758882 V 5.5562499 Z"
       id="path4629"
       sodipodi:nodetypes="ccccc" />
    <path
       inkscape:connector-curvature="0"
       style="opacity:1;fill:#f5f9fb;fill-opacity:1;stroke:none;stroke-width:0.529167;stroke-linecap:butt;stroke-linejoin:round;paint-order:stroke fill markers"
       d="m 10.054167,5.5562499 v 2.2489583 c 0,1.2458801 1.060952,2.2489588 2.379183,2.2489588 0.08957,0 0.177633,-0.0054 0.264583,-0.01447 -1.192622,-0.1237949 -2.1146,-1.0732815 -2.1146,-2.2344878 V 5.5562499 Z"
       id="path4615"
       sodipodi:nodetypes="ccccccc" />
    <path
       inkscape:connector-curvature="0"
       style="opacity:1;fill:#ffb98d;fill-opacity:1;stroke:none;stroke-width:0.529167;stroke-linecap:round;stroke-linejoin:round;stroke-miterlimit:4;stroke-dasharray:none;paint-order:stroke fill markers"
       d="m 14.022916,15.610929 c 0,0.19593 -0.106544,0.364424 -0.264066,0.455786 0.07799,0.04524 0.167572,0.07286 0.264583,0.07286 0.292942,0 0.52865,-0.235708 0.52865,-0.52865 v -0.5302 c 0,-0.292941 -0.235708,-0.52865 -0.52865,-0.528646 -0.09701,4e-6 -0.186588,0.02763 -0.264583,0.07286 0.157522,0.09136 0.264066,0.259859 0.264066,0.455789 z"
       id="rect4561"
       sodipodi:nodetypes="ccccccccc" />
    <path
       style="opacity:1;fill:#e4eff8;fill-opacity:1;stroke:none;stroke-width:0.529167;stroke-linecap:round;stroke-linejoin:round;stroke-miterlimit:4;stroke-dasharray:none;paint-order:stroke fill markers"
       inkscape:transform-center-x="0.0011228873"
       inkscape:transform-center-y="-0.10959612"
       d="M 13.096551,8.7185463 12.443503,8.3583952 11.780084,8.7230919 11.908639,7.96771 l -0.53943,-0.5415611 0.7325,-0.1067005 0.330033,-0.6993999 0.324155,0.6894373 0.743401,0.1093082 -0.532161,0.5327963 z"
       id="path4618"
       inkscape:connector-curvature="0"
       sodipodi:nodetypes="ccccccccccc" />
    <path
       inkscape:connector-curvature="0"
       style="opacity:1;fill:#c4dcf0;fill-opacity:1;stroke:none;stroke-width:0.529167;stroke-linecap:butt;stroke-linejoin:round;paint-order:stroke fill markers"
       d="m 12.731523,7.2574382 c -0.153186,0.4879425 -0.475976,0.9046371 -0.904855,1.1911417 l -0.04651,0.2744018 0.663526,-0.3648356 0.312126,0.1720824 C 12.8528,8.4739434 12.94625,8.4131702 13.033313,8.34471 L 12.967163,7.9514524 13.49943,7.4186684 12.755807,7.3096312 Z"
       id="path4621"
       sodipodi:nodetypes="cccccccccc" />
    <path
       style="opacity:1;fill:#ecb200;fill-opacity:1;stroke:none;stroke-width:0.529167;stroke-linecap:butt;stroke-linejoin:round;stroke-miterlimit:4;stroke-dasharray:none;stroke-dashoffset:0;stroke-opacity:1"
       d="m 14.816666,4.4979166 c 0,0.5291667 -1.058333,0.5291667 -2.711979,0.5291667 H 9.5249999 c 0,0.2931583 0.2360083,0.5291666 0.5291671,0.5291666 h 4.762499 c 0.293159,0 0.529167,-0.2360083 0.529167,-0.5291666 0,-0.2931584 -0.236008,-0.5291667 -0.529167,-0.5291667 z"
       id="rect4636"
       inkscape:connector-curvature="0"
       sodipodi:nodetypes="ccccccc" />
    <path
       inkscape:connector-curvature="0"
       style="opacity:1;fill:#f5f9fb;fill-opacity:1;stroke:none;stroke-width:0.529167;stroke-linecap:butt;stroke-linejoin:round;stroke-miterlimit:4;stroke-dasharray:none;stroke-dashoffset:0;stroke-opacity:1"
       d="m 10.054167,4.4979166 c -0.2931588,0 -0.5291671,0.2360083 -0.5291671,0.5291667 0,0.2931583 0.2360083,0.5291666 0.5291671,0.5291666 h 0.529166 c -0.293158,0 -0.529166,-0.2360083 -0.529166,-0.5291666 0,-0.2931584 0.236008,-0.5291667 0.529166,-0.5291667 z"
       id="rect4641"
       sodipodi:nodetypes="ccccccc" />
    <path
       inkscape:connector-curvature="0"
       style="opacity:1;fill:#ffb98d;fill-opacity:1;stroke:none;stroke-width:0.529167;stroke-linecap:round;stroke-linejoin:round;stroke-miterlimit:4;stroke-dasharray:none;paint-order:stroke fill markers"
       d="m 11.906249,15.610927 c 0,0.19593 -0.106544,0.364424 -0.264066,0.455786 0.07799,0.04524 0.167572,0.07286 0.264584,0.07286 0.292942,0 0.52865,-0.235708 0.52865,-0.52865 v -0.5302 c 0,-0.292941 -0.235708,-0.52865 -0.52865,-0.528646 -0.09701,4e-6 -0.186589,0.02763 -0.264584,0.07286 0.157522,0.09136 0.264066,0.259859 0.264066,0.455789 z"
       id="path1009"
       sodipodi:nodetypes="ccccccccc" />
    <path
       sodipodi:nodetypes="ccccccccc"
       id="path1011"
       d="m 10.847915,15.610927 c 0,0.19593 -0.106544,0.364424 -0.264066,0.455786 0.07799,0.04524 0.167572,0.07286 0.264584,0.07286 0.292942,0 0.52865,-0.235708 0.52865,-0.52865 v -0.5302 c 0,-0.292941 -0.235708,-0.52865 -0.52865,-0.528646 -0.09701,4e-6 -0.186589,0.02763 -0.264584,0.07286 0.157522,0.09136 0.264066,0.259859 0.264066,0.455789 z"
       style="opacity:1;fill:#ffb98d;fill-opacity:1;stroke:none;stroke-width:0.529167;stroke-linecap:round;stroke-linejoin:round;stroke-miterlimit:4;stroke-dasharray:none;paint-order:stroke fill markers"
       inkscape:connector-curvature="0" />
    <path
       id="Ic_28"
       style="color:#000000;display:inline;fill:#333333;fill-opacity:1;stroke-width:1;stroke-linejoin:round"
       d="m 4.2346379,0.52918256 c -0.14533,5.67e-4 -0.26521,0.11826 -0.26577,0.263613 V 1.3226026 h -0.52561 c -0.14694,-5.75e-4 -0.26621,0.11871 -0.26564,0.265678 5.8e-4,0.14616 0.1195,0.264183 0.26564,0.263611 h 0.52561 v 0.52929 c -5.8e-4,0.14616 0.11743,0.265109 0.26357,0.265679 0.14695,5.82e-4 0.26622,-0.118711 0.26565,-0.265679 v -0.52929 h 0.53335 c 0.14534,-5.66e-4 0.26301,-0.118258 0.26358,-0.263611 5.8e-4,-0.146159 -0.11744,-0.265109 -0.26358,-0.265678 h -0.53335 V 0.79279556 c -5.7e-4,-0.14616 -0.1173,-0.264185 -0.26345,-0.263613 z M 12.434318,1.3226026 c -0.14695,-5.75e-4 -0.26622,0.11871 -0.26564,0.265678 v 0.792901 c -5.9e-4,0.146968 0.11869,0.266254 0.26564,0.265679 0.14634,-2.91e-4 0.26467,-0.119318 0.26409,-0.265679 v -0.792901 c 5.9e-4,-0.146361 -0.11775,-0.265393 -0.26409,-0.265678 z m -2.02747,0.794968 c -0.10973,0.09743 -0.11924,0.265558 -0.0212,0.374741 l 0.52922,0.590282 c 0.0973,0.108726 0.26418,0.118206 0.37314,0.02119 0.10837,-0.09724 0.11784,-0.263774 0.0212,-0.372674 l -0.52922,-0.59235 c -0.12046,-0.128295 -0.2853,-0.100815 -0.37314,-0.021189 z m 3.15258,0.613539 c -0.0965,0.109038 -0.0868,0.275582 0.0217,0.372674 0.10896,0.09701 0.27587,0.08753 0.37314,-0.02119 l 0.52922,-0.590282 c 0.0981,-0.109183 0.0885,-0.27731 -0.0212,-0.374741 -0.13186,-0.114854 -0.2996,-0.06402 -0.37313,0.02119 z M 7.6723679,2.1134306 c -0.14533,5.66e-4 -0.26301,0.118258 -0.26357,0.263611 v 0.265679 h -0.26358 c -0.14654,-8.61e-4 -0.26588,0.117563 -0.26616,0.264127 -5.8e-4,0.147171 0.11901,0.266542 0.26616,0.265679 h 0.26358 v 0.263611 c -5.8e-4,0.14616 0.11743,0.265109 0.26357,0.265679 0.14695,5.82e-4 0.26622,-0.118711 0.26565,-0.265679 v -0.263611 h 0.26357 c 0.14695,5.82e-4 0.26622,-0.11871 0.26565,-0.265678 -2.9e-4,-0.146362 -0.1193,-0.2647 -0.26565,-0.264128 h -0.26357 v -0.265679 c -5.7e-4,-0.14616 -0.11951,-0.264183 -0.26565,-0.263611 z m -5.02604,4.233283 v 0.516885 c -0.16573,0.173815 -0.26564,0.420102 -0.26564,0.680737 0,0.491588 0.35521,0.934003 0.83828,0.93401 0.0308,0 0.0612,-0.002 0.0915,-0.0057 0.17242,0.486177 0.50032,0.899698 0.92407,1.181597 v 0.3985184 c -0.0428,-2.65e-4 -0.085,0.0098 -0.123,0.02946 l -1.33442,0.691583 c -0.28203,0.146355 -0.56352,0.281017 -0.80624,0.484322 -0.24271,0.203305 -0.43731,0.493042 -0.49252,0.873536 l -0.40829,2.809265 c -0.0595,0.410274 0.11318,0.790027 0.38503,1.048759 0.27186,0.25873 0.64395,0.414023 1.03725,0.414023 2.049,0.001 4.09858,0 6.14702,0 0.4486,0 0.87227,-0.19952 1.14629,-0.529287 h 0.3152601 c 0.10968,0.307154 0.40455,0.529287 0.74732,0.529287 0.20272,0 0.38889,-0.07759 0.52974,-0.204686 0.14084,0.12707 0.32652,0.204686 0.52922,0.204686 0.20269,0 0.38837,-0.07762 0.52922,-0.204686 0.14085,0.127096 0.32701,0.204686 0.52973,0.204686 0.20273,0 0.38838,-0.07759 0.52922,-0.204686 0.14085,0.12707 0.32653,0.204686 0.52922,0.204686 0.34274,0 0.63762,-0.222183 0.74732,-0.529287 h 0.31164 c 0.43509,0 0.79145,-0.358028 0.79145,-0.793181 v -1.059095 c 0,-0.427304 -0.34377,-0.781522 -0.76819,-0.794173 -0.45952,-0.33721 -0.77743,-0.684611 -0.99436,-1.13973 -0.28025,-0.775729 -0.35254,-1.453896 -0.35557,-2.1083754 0.7886,-0.433437 1.32254,-1.243095 1.32254,-2.177634 v -2.029798 c 0.30816,-0.10909 0.53128,-0.404225 0.53128,-0.747932 0,-0.435261 -0.3581,-0.795484 -0.79331,-0.795485 h -4.76195 c -0.4352001,0 -0.7948601,0.360224 -0.7948601,0.795485 0,0.342334 0.22245,0.636246 0.52922,0.746382 v 2.031355 c 0,0.935343 0.5348901,1.745506 1.3246001,2.178668 -0.0375,0.7191244 -0.0818,1.5154064 -0.35557,2.1073414 -0.2107,0.442059 -0.51713,0.78261 -0.9555901,1.110784 l -0.1597,-1.067368 c -0.0564,-0.379751 -0.25018,-0.669918 -0.49252,-0.873536 -0.24235,-0.203618 -0.5238,-0.33844 -0.80675,-0.484322 l -1.34373,-0.691591 c -0.0376,-0.01938 -0.0792,-0.02948 -0.12145,-0.02946 V 9.6542376 c 0.42376,-0.281883 0.75163,-0.695433 0.92407,-1.181598 0.0304,0.0037 0.0612,0.0057 0.092,0.0057 0.48307,10e-7 0.8357,-0.442418 0.83569,-0.934011 0,-0.260362 -0.0987,-0.506434 -0.26357,-0.680219 v -0.517396 c 0,-1.608166 -1.30224,-2.910576 -2.91022,-2.910576 -1.60797,0 -2.91073,1.30241 -2.91073,2.910576 z m -1.05482,-2.381286 v 0.263616 h -0.26564 c -0.14614,5.82e-4 -0.26643,0.122729 -0.26586,0.268889 2.8e-4,0.145554 0.12032,0.260349 0.26586,0.260917 h 0.26564 v 0.265679 c 5.7e-4,0.145554 0.11856,0.263328 0.26409,0.263611 0.14615,5.82e-4 0.26508,-0.117451 0.26565,-0.263611 v -0.265679 h 0.26357 c 0.14635,5.83e-4 0.26536,-0.117766 0.26565,-0.264127 5.8e-4,-0.146968 -0.1187,-0.266254 -0.26565,-0.265679 h -0.26357 v -0.263611 c -5.7e-4,-0.14616 -0.1195,-0.264183 -0.26565,-0.263614 -0.14553,2.89e-4 -0.26352,0.118055 -0.26409,0.263609 z m 6.34651,2.646965 h -0.28322 c -0.20355,-0.005 -0.39888,-0.08777 -0.54317,-0.232081 -0.14895,-0.148964 -0.23257,-0.352221 -0.23257,-0.562887 0.006,-0.09128 -0.0549,-0.187629 -0.0915,-0.224328 -0.10363,-0.102209 -0.27035,-0.101516 -0.37314,0.0016 -0.60034,0.607445 -1.74079,1.017745 -2.97479,1.017745 l -0.26358,0.0016 v -0.267229 c 0,-1.324095 1.05794,-2.377963 2.38186,-2.377973 1.32392,-1.1e-5 2.38009,1.053858 2.3801,2.377913 z m 2.1173901,-1.853548 h 4.76195 c 0.15117,0 0.26616,0.114488 0.26616,0.265679 0,0.151191 -0.11499,0.263611 -0.26616,0.263611 h -4.76195 c -0.1511701,0 -0.2656401,-0.112421 -0.2656401,-0.263611 0,-0.15119 0.11447,-0.265679 0.2656401,-0.265679 z m 0.26358,1.05858 h 4.23118 v 1.984836 c 0,1.095883 -0.93171,1.984836 -2.11585,1.984836 -1.18414,0 -2.11533,-0.888953 -2.11533,-1.984836 z m -3.8869801,0.456926 c 0.0659,0.178212 0.16972,0.342373 0.30648,0.479152 0.1845,0.184524 0.41837,0.30931 0.67031,0.361302 v 0.572191 c 0,1.020268 -0.82018,1.83649 -1.85176,1.83649 -1.03157,0 -1.85175,-0.816221 -1.85175,-1.83649 v -0.550482 c 1.05102,-0.04365 2.02876,-0.345688 2.72672,-0.862163 z m 6.0007601,0.07857 c -0.10294,-2.47e-4 -0.19669,0.05923 -0.24032,0.152481 l -0.26771,0.570123 -0.59382,0.08632 c -0.21531,0.03176 -0.30237,0.29541 -0.14833,0.449173 l 0.44343,0.445555 -0.10543,0.620778 c -0.0365,0.218185 0.19489,0.382189 0.38864,0.275499 l 0.53491,-0.294624 0.5256,0.291006 c 0.19471,0.107639 0.42725,-0.05844 0.38865,-0.277567 l -0.1075,-0.631116 0.43568,-0.437284 c 0.15477,-0.153746 0.0675,-0.418227 -0.14833,-0.44969 l -0.60157,-0.08787 -0.26358,-0.560303 c -0.0436,-0.09325 -0.13738,-0.152727 -0.24032,-0.152481 z m -9.5228601,1.191419 c 0,-0.2231 0.1296,-0.374333 0.26507,-0.400581 -0.003,0.26704 -0.006,0.632616 0.015075,0.803234 -0.140365,-0.01856 -0.280145,-0.171856 -0.280145,-0.402653 z m 5.02811,-0.398001 c 0.13529,0.02651 0.26564,0.17517 0.26564,0.398001 0,0.2308 -0.12821,0.384099 -0.26855,0.402653 0.009,-0.08539 0.003,-0.172117 0.003,-0.259993 z m 4.4947501,0.09355 0.0837,0.179359 c 0.0374,0.08076 0.113,0.137283 0.20104,0.150413 l 0.22275,0.0336 -0.16021,0.160234 c -0.0596,0.06081 -0.0864,0.146603 -0.0718,0.230531 l 0.0388,0.226395 -0.17572,-0.09562 c -0.0791,-0.04321 -0.17469,-0.04321 -0.25376,0 l -0.18399,0.101309 0.0372,-0.216574 c 0.014,-0.08427 -0.0135,-0.170119 -0.0739,-0.230531 l -0.16796,-0.167987 0.21293,-0.03153 c 0.088,-0.01313 0.16358,-0.06965 0.20104,-0.150414 z m -7.6711101,2.677462 c 0.24878,0.08767 0.51661,0.1354244 0.79538,0.1354244 0.27793,0 0.54466,-0.04774 0.7928,-0.1349074 v 0.5541004 l -0.63878,0.639902 h -0.30854 l -0.64086,-0.640936 z m 6.8788301,0.2832544 c 0.25109,0.07514 0.51747,0.11578 0.79383,0.11578 0.27636,0 0.54325,-0.04063 0.79435,-0.11578 0.0125,0.876843 0.13785,1.553717 0.40518,2.114574 0.16564,0.347499 0.3851,0.645117 0.65429,0.912301 h -3.70712 c 0.26918,-0.267184 0.48865,-0.564802 0.65429,-0.912301 0.26733,-0.560857 0.39271,-1.237731 0.40518,-2.114574 z m -7.4566301,0.440385 0.7344,0.734492 -0.39847,0.398516 -0.73853,-0.92367 z m 2.74637,0 0.40311,0.208305 -0.73905,0.924703 -0.39846,-0.398516 z m 0.8822,0.455375 0.28787,0.148345 c 0.28837,0.148674 0.53928,0.27575 0.71062,0.419711 0.17134,0.143958 0.27102,0.287127 0.30906,0.543245 l 0.1783,1.192969 c -0.18336,0.146351 -0.30131,0.371562 -0.30131,0.621812 v 1.059095 c 0,0.226992 0.0973,0.432737 0.25221,0.577878 -0.16735,0.130508 -0.38954,0.215026 -0.60984,0.215026 h -0.37831 c 0.0529,-0.166565 0.0734,-0.348021 0.0734,-0.529291 0,-0.227912 -0.0326,-0.453566 -0.12093,-0.652308 -0.0442,-0.0995 -0.10245,-0.194182 -0.19122,-0.271881 -0.0888,-0.0777 -0.21551,-0.134907 -0.34782,-0.134907 h -0.27184 c -8.5e-4,-0.294964 -0.0468,-0.540351 -0.16384,-0.730359 -0.12114,-0.196621 -0.3361,-0.32822 -0.55661,-0.32822 -0.13606,0 -0.25969,0.04919 -0.3597,0.118366 l -0.20776,-0.830635 0.23618,-0.236214 0.077,0.07702 c 0.11145,0.112507 0.29608,0.102596 0.39485,-0.02119 z m -4.51026,0.0026 0.98919,1.235867 c 0.0987,0.123412 0.28293,0.133311 0.39433,0.02119 l 0.077,-0.07703 0.2367,0.236731 -0.44291,1.770331 h -0.7437 l 0.0543,-0.159719 c 0.0487,-0.138632 -0.0249,-0.290387 -0.16383,-0.338046 -0.13799,-0.04733 -0.28826,0.02596 -0.33593,0.163853 l -0.17778,0.511719 c -0.0602,0.172193 0.0678,0.352222 0.25014,0.352 h 1.07239 v 1.05858 h -2.01972 c -0.24946,0 -0.50328,-0.10534 -0.67393,-0.267747 -0.17064,-0.162403 -0.25759,-0.363855 -0.22481,-0.589759 l 0.40828,-2.809269 c 0.0371,-0.255684 0.13685,-0.399432 0.30854,-0.543245 0.17169,-0.143816 0.42263,-0.269991 0.71114,-0.419711 z m 2.10035,0.542211 h 0.30854 l 0.26512,0.264121 -0.41914,0.419708 -0.41965,-0.419708 z m -2.75619,1.057029 c -0.14694,-5.84e-4 -0.26621,0.118712 -0.26564,0.26568 5.7e-4,0.14616 0.1195,0.264183 0.26564,0.263611 h 1.05896 c 0.14533,-5.63e-4 0.26301,-0.118265 0.26358,-0.263618 5.8e-4,-0.146161 -0.11744,-0.265111 -0.26358,-0.26568 z m 2.79391,0.237251 c 0.0737,0.03622 0.15995,0.03622 0.2336,0 l 0.24498,0.981563 c -0.0582,0.111692 -0.11609,0.207547 -0.17262,0.267745 -0.0609,0.06485 -0.1081,0.0932 -0.20466,0.101311 h -0.43929 z m 2.28899,2.847587 c -0.022,0.04951 -0.0464,0.0808 -0.0558,0.09074 l -1.58717,8e-4 v -1.282391 c 0.2021268,-0.184985 0.2369972,-0.31618 0.3204,-0.467768 0.0675,-0.132653 0.12578,-0.246488 0.17365,-0.304962 0.0479,-0.05848 0.0536,-0.06255 0.10181,-0.06255 l 3e-5,-1.26e-4 c 0.0441,0 0.062,0.0027 0.1075,0.0765 0.0455,0.07383 0.0916,0.23111 0.0894,0.475549 v 0.243468 c 5.8e-4,0.146358 0.11982,0.264456 0.26616,0.263613 l 0.52822,0.0011 c 0.009,0.01015 0.0339,0.04146 0.0558,0.09096 0.044,0.099 0.076,0.268147 0.076,0.437262 0,0.169114 -0.032,0.338781 -0.076,0.437805 z m 2.06054,-2.026257 h 5.2937501 c 0.15085,-9e-6 0.26358,0.114386 0.26358,0.265668 v 1.059095 c 0,0.151286 -0.11273,0.263613 -0.26358,0.263613 h -0.26616 v -0.26568 c 0,-0.435044 -0.35781,-0.793416 -0.7928,-0.793416 -0.20269,0 -0.38837,0.07814 -0.52922,0.205203 -0.14084,-0.127096 -0.32649,-0.205203 -0.52922,-0.205203 -0.20272,0 -0.38888,0.07811 -0.52973,0.205203 -0.14085,-0.12707 -0.32653,-0.205203 -0.52922,-0.205203 -0.2027,0 -0.38838,0.07814 -0.52922,0.205203 -0.14085,-0.127096 -0.32702,-0.205203 -0.52974,-0.205203 -0.43499,0 -0.7928,0.358372 -0.7928,0.793416 v 0.26568 H 9.7897679 c -0.15085,0 -0.26358,-0.112327 -0.26358,-0.263613 v -1.059095 c 0.0122,-0.170839 0.11942,-0.258554 0.26358,-0.265668 z m -4.74851,1.059096 h 0.51578 v 1.05858 h -0.51578 z m 6.0730601,0.263609 v 0.531359 c 0,0.150973 -0.11521,0.263612 -0.26616,0.263612 -0.15096,0 -0.26358,-0.112639 -0.26358,-0.263612 v -0.531359 c 0,-0.146255 0.10577,-0.256853 0.2566,-0.263609 0.15793,0 0.27314,0.112637 0.27314,0.263609 z m 1.05647,0 v 0.531359 c 0,0.150973 -0.11262,0.263612 -0.26358,0.263612 -0.15095,0 -0.26357,-0.112639 -0.26357,-0.263612 v -0.531359 c 0,-0.146255 0.10577,-0.256853 0.256595,-0.263609 0.157935,0 0.270555,0.112637 0.270555,0.263609 z m 1.05894,0 v 0.531359 c 0,0.150973 -0.11262,0.263612 -0.26358,0.263612 -0.15095,0 -0.26409,-0.112639 -0.26409,-0.263612 v -0.531359 c 0,-0.146255 0.10577,-0.256853 0.256855,-0.263609 0.158195,0 0.270815,0.112637 0.270815,0.263609 z m 1.05846,0 v 0.531359 c 0,0.150973 -0.11263,0.263612 -0.26358,0.263612 -0.15095,0 -0.26358,-0.112639 -0.26358,-0.263612 v -0.531359 c 0,-0.146255 0.10577,-0.256853 0.256605,-0.263609 0.157925,0 0.270555,0.112637 0.270555,0.263609 z"
       sodipodi:nodetypes="ccccccccccccccccccccccccccccccccccccccccccccccccccccccccccccccccccccccccccccccccccccccccccccccccccccccccccccccccccccccccccccccccccccccccccccccccccccccccccccccccccccccccccccccccccccccccccccccccccccccccccccccccccccccccccccccccccccccccccccccccccccccccccccccccccccccccccccccccccccccccccccccccccccccccccccccccccccccccccccccccccccccccccccccccccccccccccccccccccccccccc"
       inkscape:export-filename="/home/wanzabuyumna/@WANZ_DESIGN/NICON STUDIO MAGANG/Project 3/Style Line/PNG/Ic_28.png"
       inkscape:export-xdpi="102.40018"
       inkscape:export-ydpi="102.40018"
       inkscape:connector-curvature="0" />
  </g>
</svg>
