<?xml version="1.0" ?><svg xmlns="http://www.w3.org/2000/svg" xmlns:xlink="http://www.w3.org/1999/xlink" version="1.1" viewBox="0 0 512 512" style="enable-background:new 0 0 512 512;" xml:space="preserve"><g id="_x33_4_Wallet_x2C__Commerce_and_Shopping_x2C__Save_Money_x2C__Deposit_x2C__Savings"><g><path style="fill:#BC6D59;" d="M481.01,50.987l-215-6.4l-255,6.4v260c0,10.84,5.75,20.34,14.37,25.6l158.89-35.6l148.37,14.8    l148.37-14.8v-80l-18.4-45l18.4-45V50.987z"/><path style="fill:#F4D944;" d="M306.01,155.987c12.23,0,21.89,10.97,19.69,23.59c-1.73,9.92-10.8,16.95-20.84,16.38    c-0.06,0-0.11-0.01-0.16-0.01c-2.849-0.19-5.173,5.277-2.15,8.3l0.03,0.03c7.81,7.8,7.81,20.47,0,28.28s-20.48,7.81-28.28,0    c-4.626-3.238-8.29-0.209-8.29,3.34v0.09c0,11.88-10.35,21.33-22.52,19.85c-9.95-1.22-17.56-9.92-17.48-20.03    c-1.083-5.413-5.829-5.711-8.25-3.29l-0.04,0.04c-7.8,7.81-20.47,7.81-28.28,0s-7.81-20.48,0-28.28    c2.857-4.081,1.532-7.298-3.43-8.29c-12.23,0-21.89-10.97-19.69-23.59c1.66-9.54,10.12-16.41,19.7-16.41    c5.237,0,6.049-5.661,3.42-8.29c-7.806-7.806-7.82-20.46,0-28.28c7.75-7.75,20.4-7.88,28.31,0.03c3.07,3.08,8.27,0.97,8.26-3.39    v-0.07c0-12.23,10.96-21.89,23.59-19.69c9.92,1.73,16.95,10.8,16.38,20.84c0,0.06-0.01,0.11-0.01,0.16    c-0.188,2.82,5.26,5.211,8.3,2.15l0.03-0.03c8.96-8.97,23.95-7.43,30.9,3.24c5.06,7.75,4.18,18.24-2.62,25.04l-0.03,0.03    C300.187,150.077,300.155,154.816,306.01,155.987z"/><circle style="fill:#ECB43E;" cx="246.011" cy="175.987" r="20"/><path style="fill:#A84E4E;" d="M501.01,130.987v90c-11.738,0-43.302,0-55,0c-24.863,0-45-20.159-45-45c0-24.85,20.15-45,45-45    C457.713,130.987,489.275,130.987,501.01,130.987z"/><path style="fill:#A84E4E;" d="M481.01,40.987v10h-470v-10c0-16.57,13.43-30,30-30h410    C467.581,10.987,481.01,24.417,481.01,40.987z"/><path style="fill:#A84E4E;" d="M184.271,300.987l34.74,40h232c16.57,0,30-13.43,30-30v-10H184.271z"/><path style="fill:#ECE6F2;" d="M198.791,468.767c-42.96,42.96-112.6,42.96-155.56,0c-35.82-35.82-41.77-90.19-17.85-132.18    c32.145-56.524,106.107-72.805,158.89-35.6C239.833,339.989,247.296,420.261,198.791,468.767z"/><g><path d="M501.01,120.987h-10v-80c0-22.056-17.944-40-40-40h-410c-22.056,0-40,17.944-40,40v270     c0,10.82,4.26,20.863,11.689,28.258c-21.334,44.609-13.519,99.617,23.458,136.595c46.901,46.901,122.808,46.897,169.705,0     c33.793-33.793,43.232-82.644,28.328-124.853H451.01c22.056,0,40-17.944,40-40v-80h10c5.522,0,10-4.478,10-10v-90     C511.01,125.464,506.533,120.987,501.01,120.987z M41.011,20.987h410c11.028,0,20,8.972,20,20h-450     C21.011,29.958,29.982,20.987,41.011,20.987z M191.72,461.697c-39.083,39.085-102.341,39.081-141.42,0     c-32.517-32.515-37.973-81.761-16.387-119.897c29.389-51.92,96.734-66.26,144.396-32.797c0.164,0.122,0.328,0.244,0.5,0.356     C229.413,345.351,235.52,417.9,191.72,461.697z M451.01,330.987H224.966c-4.067-7.03-8.904-13.738-14.516-20h260.56     C471.01,322.015,462.039,330.987,451.01,330.987z M471.01,290.987H187.406c-51.874-34.597-124.799-24.117-163.798,29.888     c-1.68-2.953-2.597-6.337-2.597-9.888v-250h450v60h-25c-30.327,0-55,24.673-55,55s24.673,55,55,55h25V290.987z M491.01,210.987     h-45c-19.299,0-35-15.701-35-35s15.701-35,35-35h45V210.987z"/><path d="M246.011,145.988c-16.542,0-30,13.458-30,30s13.458,30,30,30s30-13.458,30-30S262.552,145.988,246.011,145.988z      M246.011,185.988c-5.514,0-10-4.486-10-10s4.486-10,10-10s10,4.486,10,10S251.524,185.988,246.011,185.988z"/><path d="M315.052,147.376c4.848-9.394,4.52-20.997-1.468-30.18c-8.597-13.202-25.593-17.226-38.959-10.273     c-3.274-10.398-12.062-18.517-23.306-20.475c-15.207-2.654-29.46,6.388-33.905,20.479c-11.067-5.771-25.394-4.235-35.041,5.421     c-9.595,9.597-11.229,23.886-5.437,35.023c-10.445,3.277-18.51,12.085-20.464,23.305c-2.659,15.262,6.443,29.475,20.471,33.913     c-5.813,11.168-4.146,25.466,5.427,35.032c9.688,9.695,24.012,11.17,35.034,5.435c3.451,10.931,12.98,19.247,24.871,20.701     c14.415,1.763,27.957-6.914,32.325-20.71c11.108,5.789,25.425,4.207,35.045-5.42c9.676-9.669,11.182-23.984,5.436-35.029     c10.395-3.275,18.51-12.061,20.468-23.302C338.172,166.241,329.306,151.875,315.052,147.376z M315.845,177.864     c-0.841,4.831-5.431,8.397-10.417,8.105c-12.732-0.776-19.151,16.139-9.92,25.378c3.905,3.901,3.913,10.222-0.006,14.138     c-3.904,3.908-10.227,3.908-14.131,0c-9.145-9.145-25.361-3.26-25.361,10.502c0,5.785-5,10.684-11.308,9.919     c-4.915-0.602-8.733-5.002-8.692-10.019c0.081-13.204-15.978-19.787-25.255-10.507c-4.442,4.322-10.602,3.743-14.243,0.099     c-3.908-3.904-3.908-10.228,0-14.132c9.306-9.399,2.922-25.175-10.245-25.357c-7.254-0.165-11.1-6.093-10.092-11.881     c0.81-4.65,5.164-8.379,10.429-8.104c12.764,0.665,19.107-16.178,9.907-25.38c-3.939-3.933-3.874-10.256,0.007-14.137     c3.965-3.969,10.292-3.838,14.145,0.013c9.36,9.407,25.393,2.806,25.348-10.514c0-5.989,5.32-10.971,11.878-9.836     c4.444,0.775,8.289,4.814,8.097,10.595c0,0.008-0.001,0.016-0.001,0.023c-0.692,12.398,16.09,19.014,25.388,9.719     c4.49-4.497,11.988-3.698,15.452,1.622c0.002,0.003,0.004,0.005,0.005,0.008c2.562,3.925,2.006,9.185-1.323,12.512     c-9.196,9.126-3.102,25.141,10.223,25.354C313.003,166.211,316.863,172.024,315.845,177.864z"/><path d="M449.06,166.176c-8.924,1.812-10.839,13.397-3.6,18.12c6.556,4.375,15.55-0.258,15.55-8.31     C461.01,169.681,455.253,164.976,449.06,166.176z"/><path d="M165.637,333.723l-98.995,98.995c-3.905,3.905-3.905,10.237,0,14.143c3.906,3.905,10.238,3.905,14.143,0l98.995-98.995     c3.905-3.905,3.905-10.237,0-14.143S169.542,329.817,165.637,333.723z"/><circle cx="94.857" cy="362.036" r="9.995"/><circle cx="151.493" cy="418.596" r="9.995"/></g></g></g><g id="Layer_1"/></svg>