<?xml version="1.0" encoding="utf-8"?>
<!-- Generator: Adobe Illustrator 17.1.0, SVG Export Plug-In . SVG Version: 6.00 Build 0)  -->
<!DOCTYPE svg PUBLIC "-//W3C//DTD SVG 1.1//EN" "http://www.w3.org/Graphics/SVG/1.1/DTD/svg11.dtd">
<svg version="1.1" id="secure-creditcard" xmlns="http://www.w3.org/2000/svg" xmlns:xlink="http://www.w3.org/1999/xlink" x="0px"
	 y="0px" viewBox="0 0 1010 1010" enable-background="new 0 0 1010 1010" xml:space="preserve">
<g id="secure-creditcard-secure-creditcard">
	<path id="secure-creditcard-label" fill="#FC6E51" d="M1010,505c0,278.9043-226.0957,505-505,505C226.0962,1010,0,783.9043,0,505
		C0,226.0859,226.0962,0,505,0C783.9043,0,1010,226.0859,1010,505z"/>
	<g id="secure-creditcard-secure-creditcard_1_">
		<g>
			<path fill="#FFFFFF" d="M294.7744,441.3418V315.5264c0-22.3506,18.4639-40.6172,40.9717-40.6172h395.9512
				c22.5479,0,40.9531,18.2666,40.9531,40.6172v270.708c0,22.3886-18.4053,40.6367-40.9531,40.6367H517.3887"/>
			<rect x="294.7744" y="332.5107" fill="#3BAFDA" width="473.7334" height="58.5489"/>
			<g>
				<path fill="#454545" d="M731.6973,636.9707H517.3887v-20.2002h214.3086c17.0146,0,30.8525-13.7002,30.8525-30.5361v-270.708
					c0-16.8272-13.8379-30.5171-30.8525-30.5171H335.7461c-17.0239,0-30.8721,13.6899-30.8721,30.5171v125.8154h-20.2002V315.5264
					c0-27.9624,22.9126-50.7168,51.0723-50.7168h395.9512c28.1505,0,51.0527,22.7544,51.0527,50.7168v270.708
					C782.75,614.2061,759.8477,636.9707,731.6973,636.9707L731.6973,636.9707z"/>
			</g>
			<g>
				<polygon fill="#454545" points="772.7285,347.0098 298.9365,347.0098 298.9365,326.8096 772.7285,326.8096 772.7285,347.0098 
									"/>
			</g>
			<g>
				<polygon fill="#454545" points="772.7285,401.1592 298.9365,401.1592 298.9365,380.959 772.7285,380.959 772.7285,401.1592 				
					"/>
			</g>
			<g>
				<polygon fill="#454545" points="732.6641,504.9609 562.8975,504.9609 562.8975,484.7607 732.6641,484.7607 732.6641,504.9609 
									"/>
			</g>
			<g>
				<polygon fill="#454545" points="601.4043,559.1299 529.2246,559.1299 529.2246,538.9297 601.4043,538.9297 601.4043,559.1299 
									"/>
			</g>
			<g>
				<polygon fill="#454545" points="732.6641,559.1299 617.8164,559.1299 617.8164,538.9297 732.6641,538.9297 732.6641,559.1299 
									"/>
			</g>
		</g>
		<g>
			<g>
				<path fill="#ACAF48" d="M499.5752,562.1475c-20.0225-48.0342,22.0347-73.4414,22.0347-73.4414l-47.896-47.3838H379.48h-94.2144
					l-47.9155,47.3838c0,0,42.0571,25.4072,22.0347,73.4414c0,0-9.9229,22.9619-15.5049,46.1406
					c-4.7344,19.6474-2.5645,40.5976,7.1601,58.3515c6.4707,11.7764,16.4917,22.7442,31.7798,24.835
					c4.7344,0.6709,9.4488,1.7959,13.9663,3.4727c21.5811,7.831,76.9141,28.8994,82.6939,40.1435
					c5.7798-11.2441,61.0932-32.3125,82.6938-40.1435c4.5176-1.6768,9.2119-2.8018,13.9864-3.4727
					c15.248-2.0908,25.289-13.0586,31.7597-24.835c9.7447-17.7539,11.8946-38.7041,7.1406-58.3515
					C509.498,585.1094,499.5752,562.1475,499.5752,562.1475z"/>
				<path fill="#454545" d="M379.3813,745.3486c-3.6889,0-6.9931-2.1699-8.7583-5.4052
					c-4.0439-5.1778-31.77-18.9865-77.2792-35.4981c-3.7085-1.3808-7.7032-2.3672-11.9444-2.9687
					c-16.0674-2.1993-29.6489-12.5664-39.2065-29.9746c-10.7212-19.5684-13.6114-42.8555-8.1372-65.5811
					c5.7207-23.751,15.6435-46.8115,16.0576-47.7773c16.4321-39.4336-16.5703-59.9395-17.9907-60.7979
					c-2.6631-1.6074-4.4385-4.3594-4.8033-7.4463c-0.3652-3.0967,0.71-6.1846,2.9292-8.374l47.9156-47.3828
					c1.894-1.875,4.4384-2.9199,7.1015-2.9199h188.4483c2.6631,0,5.208,1.0449,7.1015,2.9199l47.896,47.3828
					c2.2193,2.1894,3.2946,5.2773,2.9292,8.374c-0.3647,3.0869-2.1401,5.8389-4.8032,7.4463
					c-1.3711,0.8486-34.2651,21.749-17.9414,60.916c0.375,0.8477,10.2876,23.918,15.9888,47.669
					c5.4937,22.7255,2.6132,46.0224-8.1078,65.5713c-9.5674,17.4082-23.1392,27.7753-39.2461,29.9843
					c-4.1919,0.5821-8.1866,1.5782-11.8457,2.9297c-45.815,16.6094-73.6001,30.4873-77.417,35.6162
					C386.542,743.3955,383.1689,745.3486,379.3813,745.3486L379.3813,745.3486z M252.6479,487.7783
					c15.5645,14.4893,31.1679,42.0078,16.0576,78.2559c-0.148,0.3447-9.7056,22.5967-15.0025,44.6211
					c-4.2998,17.833-2.1006,35.9912,6.1943,51.1318c6.4507,11.7363,14.6171,18.3555,24.2934,19.6768
					c5.7105,0.8183,11.1157,2.1601,16.107,4.0146c48.083,17.4473,69.4077,28.6035,79.2607,35.6758
					c9.9722-7.1221,31.4248-18.3955,79.1728-35.7051c4.9415-1.8349,10.3565-3.1767,16.0279-3.9756
					c9.686-1.331,17.8525-7.9599,24.313-19.6963c8.2949-15.1211,10.4843-33.2695,6.1743-51.1123
					c-5.2866-22.0341-14.8443-44.2861-14.9429-44.5127c-15.1499-36.3457,0.4541-63.8847,16.0083-78.374l-36.7505-36.3554h-180.143
					L252.6479,487.7783L252.6479,487.7783z"/>
			</g>
			<g>
				<path fill="#FFB933" d="M447.6553,582.2988c0,37.6475-30.5176,68.1748-68.1753,68.1748s-68.1753-30.5273-68.1753-68.1748
					c0-37.6484,30.5176-68.1758,68.1753-68.1758S447.6553,544.6504,447.6553,582.2988z"/>
				<g>
					<path fill="#454545" d="M368.5615,625.125c-2.9394,0-5.7407-1.2822-7.6738-3.5313l-21.8174-25.457
						c-3.6299-4.2314-3.1367-10.6133,1.1045-14.2422c4.2315-3.6104,10.603-3.1465,14.2427,1.1045l13.1377,15.3272l36.2573-54.3565
						c3.0874-4.6455,9.3604-5.8984,14.0059-2.8017c4.6455,3.0976,5.8984,9.3711,2.8012,14.0058l-43.6548,65.4532
						c-1.7558,2.6337-4.6357,4.291-7.7919,4.4785C368.9658,625.1152,368.7588,625.125,368.5615,625.125L368.5615,625.125z"/>
				</g>
			</g>
		</g>
	</g>
</g>
</svg>
