<?xml version="1.0" encoding="UTF-8" standalone="no"?>
<!-- Created with Inkscape (http://www.inkscape.org/) -->

<svg
   width="64pt"
   height="64pt"
   viewBox="0 0 22.577778 22.577778"
   version="1.1"
   id="svg831"
   inkscape:version="1.1.2 (0a00cf5339, 2022-02-04)"
   sodipodi:docname="26 - Real Estate Profit.svg"
   inkscape:export-filename="/media/taufikramadhan/Data/Tr Design Studio/Project Design/TR Creative Design/Icon Design/Project Hiring/Icon Icons/024 - Real Estate And Building/5 - Send/3 - Flat/26 - Real Estate Profit.png"
   inkscape:export-xdpi="576"
   inkscape:export-ydpi="576"
   xmlns:inkscape="http://www.inkscape.org/namespaces/inkscape"
   xmlns:sodipodi="http://sodipodi.sourceforge.net/DTD/sodipodi-0.dtd"
   xmlns="http://www.w3.org/2000/svg"
   xmlns:svg="http://www.w3.org/2000/svg"
   xmlns:rdf="http://www.w3.org/1999/02/22-rdf-syntax-ns#"
   xmlns:cc="http://creativecommons.org/ns#"
   xmlns:dc="http://purl.org/dc/elements/1.1/">
  <defs
     id="defs825">
    <pattern
       id="EMFhbasepattern"
       patternUnits="userSpaceOnUse"
       width="6"
       height="6"
       x="0"
       y="0" />
    <pattern
       id="EMFhbasepattern-9"
       patternUnits="userSpaceOnUse"
       width="6"
       height="6"
       x="0"
       y="0" />
    <pattern
       id="EMFhbasepattern-0"
       patternUnits="userSpaceOnUse"
       width="6"
       height="6"
       x="0"
       y="0" />
    <pattern
       id="EMFhbasepattern-7"
       patternUnits="userSpaceOnUse"
       width="6"
       height="6"
       x="0"
       y="0" />
    <pattern
       id="EMFhbasepattern-2"
       patternUnits="userSpaceOnUse"
       width="6"
       height="6"
       x="0"
       y="0" />
    <pattern
       id="EMFhbasepattern-98"
       patternUnits="userSpaceOnUse"
       width="6"
       height="6"
       x="0"
       y="0" />
    <pattern
       id="EMFhbasepattern-6"
       patternUnits="userSpaceOnUse"
       width="6"
       height="6"
       x="0"
       y="0" />
    <pattern
       id="EMFhbasepattern-01"
       patternUnits="userSpaceOnUse"
       width="6"
       height="6"
       x="0"
       y="0" />
    <pattern
       id="EMFhbasepattern-07"
       patternUnits="userSpaceOnUse"
       width="6"
       height="6"
       x="0"
       y="0" />
    <pattern
       id="EMFhbasepattern-8"
       patternUnits="userSpaceOnUse"
       width="6"
       height="6"
       x="0"
       y="0" />
    <pattern
       id="EMFhbasepattern-4"
       patternUnits="userSpaceOnUse"
       width="6"
       height="6"
       x="0"
       y="0" />
    <pattern
       id="EMFhbasepattern-40"
       patternUnits="userSpaceOnUse"
       width="6"
       height="6"
       x="0"
       y="0" />
    <pattern
       id="EMFhbasepattern-08"
       patternUnits="userSpaceOnUse"
       width="6"
       height="6"
       x="0"
       y="0" />
    <pattern
       id="EMFhbasepattern-04"
       patternUnits="userSpaceOnUse"
       width="6"
       height="6"
       x="0"
       y="0" />
    <pattern
       id="EMFhbasepattern-014"
       patternUnits="userSpaceOnUse"
       width="6"
       height="6"
       x="0"
       y="0" />
    <pattern
       id="EMFhbasepattern-27"
       patternUnits="userSpaceOnUse"
       width="6"
       height="6"
       x="0"
       y="0" />
    <pattern
       id="EMFhbasepattern-09"
       patternUnits="userSpaceOnUse"
       width="6"
       height="6"
       x="0"
       y="0" />
    <pattern
       id="EMFhbasepattern-5"
       patternUnits="userSpaceOnUse"
       width="6"
       height="6"
       x="0"
       y="0" />
    <pattern
       id="EMFhbasepattern-018"
       patternUnits="userSpaceOnUse"
       width="6"
       height="6"
       x="0"
       y="0" />
  </defs>
  <sodipodi:namedview
     id="base"
     pagecolor="#ffffff"
     bordercolor="#666666"
     borderopacity="1.0"
     inkscape:pageopacity="0.0"
     inkscape:pageshadow="2"
     inkscape:zoom="3.0256409"
     inkscape:cx="42.635595"
     inkscape:cy="42.80085"
     inkscape:document-units="pt"
     inkscape:current-layer="layer1"
     showgrid="false"
     units="pt"
     inkscape:window-width="996"
     inkscape:window-height="713"
     inkscape:window-x="362"
     inkscape:window-y="26"
     inkscape:window-maximized="0"
     inkscape:pagecheckerboard="true"
     inkscape:showpageshadow="false"
     inkscape:object-paths="true"
     inkscape:snap-intersection-paths="true"
     inkscape:snap-smooth-nodes="true"
     inkscape:snap-midpoints="true"
     showguides="true"
     inkscape:snap-bbox="true"
     inkscape:bbox-nodes="true"
     inkscape:snap-nodes="false"
     inkscape:snap-global="true"
     inkscape:snap-others="false">
    <inkscape:grid
       type="xygrid"
       id="grid1378" />
    <sodipodi:guide
       position="0.97013831,21.607643"
       orientation="78.000048,0"
       id="guide1380"
       inkscape:locked="false" />
    <sodipodi:guide
       position="0.97013831,0.97013129"
       orientation="0,78.000005"
       id="guide1382"
       inkscape:locked="false" />
    <sodipodi:guide
       position="21.607639,0.97013129"
       orientation="-78.000048,0"
       id="guide1384"
       inkscape:locked="false" />
    <sodipodi:guide
       position="21.607639,21.607643"
       orientation="0,-78.000005"
       id="guide1386"
       inkscape:locked="false" />
  </sodipodi:namedview>
  <metadata
     id="metadata828">
    <rdf:RDF>
      <cc:Work
         rdf:about="">
        <dc:format>image/svg+xml</dc:format>
        <dc:type
           rdf:resource="http://purl.org/dc/dcmitype/StillImage" />
      </cc:Work>
    </rdf:RDF>
  </metadata>
  <g
     inkscape:label="Icon"
     inkscape:groupmode="layer"
     id="layer1"
     transform="translate(0,-274.42223)">
    <g
       id="g91018"
       style="display:inline;stroke-width:0.794984"
       transform="matrix(1.257887,0,0,1.257887,39.008973,-192.33753)">
      <path
         style="color:#000000;fill:#e2f0fa;stroke-width:0.794984;stroke-linecap:round;stroke-linejoin:round;stroke-miterlimit:1.5;-inkscape-stroke:none"
         d="m -25.78125,376.78125 a 0.26460996,0.26460996 0 0 0 -0.263672,0.26562 v 9.28516 a 0.26460996,0.26460996 0 0 0 0.263672,0.26367 h 9.884766 a 0.26460996,0.26460996 0 0 0 0.265625,-0.26367 v -9.28516 a 0.26460996,0.26460996 0 0 0 -0.265625,-0.26562 z"
         id="path24366" />
      <path
         id="path30945"
         style="color:#000000;fill:#c8dae5;fill-opacity:1;stroke-width:3.00467;stroke-linecap:round;stroke-linejoin:round;stroke-miterlimit:1.5;-inkscape-stroke:none"
         d="m -97.441406,365.53516 a 1.0001006,1.0001006 0 0 0 -0.996094,1.0039 v 2.9961 h 39.359375 v -2.9961 a 1.0001006,1.0001006 0 0 0 -1.003906,-1.0039 z"
         transform="matrix(0.26458334,0,0,0.26458334,0,280.06666)" />
      <path
         style="color:#000000;fill:#ff7247;stroke-width:0.794984;stroke-linecap:round;stroke-linejoin:round;stroke-miterlimit:1.5;-inkscape-stroke:none"
         d="m -25.181641,374.68555 a 0.26460996,0.26460996 0 0 0 -0.242187,0.16015 l -0.898438,2.09766 a 0.26460996,0.26460996 0 0 0 0.242188,0.36719 h 10.484375 a 0.26460996,0.26460996 0 0 0 0.242187,-0.36719 l -0.898437,-2.09766 a 0.26460996,0.26460996 0 0 0 -0.242188,-0.16015 z"
         id="path24372" />
      <path
         style="color:#000000;fill:#c8dae5;stroke-width:0.794984;stroke-linecap:round;stroke-linejoin:round;stroke-miterlimit:1.5;-inkscape-stroke:none"
         d="M -22.486328,378.87891 A 0.26460996,0.26460996 0 0 0 -22.75,379.14258 v 7.18945 a 0.26460996,0.26460996 0 0 0 0.263672,0.26367 h 8.386719 a 0.26460996,0.26460996 0 0 0 0.265625,-0.26367 v -7.18945 a 0.26460996,0.26460996 0 0 0 -0.265625,-0.26367 z"
         id="path24378" />
      <path
         style="color:#000000;fill:#4895ef;stroke-width:0.794984;stroke-linecap:round;stroke-linejoin:round;stroke-miterlimit:1.5;-inkscape-stroke:none"
         d="m -21.287109,383.67187 a 0.26460996,0.26460996 0 0 0 -0.265625,0.26368 v 2.39648 a 0.26460996,0.26460996 0 0 0 0.265625,0.26367 h 1.498047 a 0.26460996,0.26460996 0 0 0 0.263671,-0.26367 v -2.39648 a 0.26460996,0.26460996 0 0 0 -0.263671,-0.26368 z"
         id="path24384" />
      <path
         id="path80358"
         style="color:#000000;fill:#4377d1;fill-opacity:1;stroke-width:0.794984;stroke-linecap:round;stroke-linejoin:round;stroke-miterlimit:1.5;-inkscape-stroke:none"
         d="m -21.287073,383.67171 a 0.26460996,0.26460996 0 0 0 -0.265617,0.26406 v 0.2651 h 0.705383 a 0.26460996,0.26460996 0 0 1 0.26355,0.26407 v 2.13062 h 0.794783 a 0.26460996,0.26460996 0 0 0 0.26355,-0.26355 v -2.39624 a 0.26460996,0.26460996 0 0 0 -0.26355,-0.26406 z" />
      <path
         style="color:#000000;fill:#9ccc65;stroke-width:0.794984;stroke-linecap:round;stroke-linejoin:round;stroke-miterlimit:1.5;-inkscape-stroke:none"
         d="m -19.789062,383.07227 a 0.26460996,0.26460996 0 0 0 -0.265625,0.26367 v 2.99609 a 0.26460996,0.26460996 0 0 0 0.265625,0.26367 h 1.496093 a 0.26460996,0.26460996 0 0 0 0.265625,-0.26367 v -2.99609 a 0.26460996,0.26460996 0 0 0 -0.265625,-0.26367 z"
         id="path24390" />
      <path
         id="path77465"
         style="color:#000000;fill:#74a838;fill-opacity:1;stroke-width:0.794984;stroke-linecap:round;stroke-linejoin:round;stroke-miterlimit:1.5;-inkscape-stroke:none"
         d="m -19.788974,383.07226 a 0.26460996,0.26460996 0 0 0 -0.265616,0.26355 v 0.26562 h 0.703316 a 0.26460996,0.26460996 0 0 1 0.265617,0.26355 v 2.73058 h 0.792716 a 0.26460996,0.26460996 0 0 0 0.265617,-0.26355 v -2.9962 a 0.26460996,0.26460996 0 0 0 -0.265617,-0.26355 z" />
      <path
         style="color:#000000;fill:#4895ef;stroke-width:0.794984;stroke-linecap:round;stroke-linejoin:round;stroke-miterlimit:1.5;-inkscape-stroke:none"
         d="m -18.292969,381.57422 a 0.26460996,0.26460996 0 0 0 -0.263672,0.26562 v 4.49219 a 0.26460996,0.26460996 0 0 0 0.263672,0.26367 h 1.498047 a 0.26460996,0.26460996 0 0 0 0.265625,-0.26367 v -4.49219 a 0.26460996,0.26460996 0 0 0 -0.265625,-0.26562 z"
         id="path24396" />
      <path
         id="path72895"
         style="color:#000000;fill:#4377d1;fill-opacity:1;stroke-width:0.794984;stroke-linecap:round;stroke-linejoin:round;stroke-miterlimit:1.5;-inkscape-stroke:none"
         d="m -18.292941,381.57416 a 0.26460996,0.26460996 0 0 0 -0.26355,0.26562 v 0.26355 h 0.703317 a 0.26460996,0.26460996 0 0 1 0.265617,0.26562 v 4.22661 h 0.792716 a 0.26460996,0.26460996 0 0 0 0.265617,-0.26355 v -4.49223 a 0.26460996,0.26460996 0 0 0 -0.265617,-0.26562 z" />
      <path
         style="color:#000000;fill:#9ccc65;stroke-width:0.794984;stroke-linecap:round;stroke-linejoin:round;stroke-miterlimit:1.5;-inkscape-stroke:none"
         d="m -16.794922,380.07617 a 0.26460996,0.26460996 0 0 0 -0.263672,0.26563 v 5.99023 a 0.26460996,0.26460996 0 0 0 0.263672,0.26367 h 1.498047 a 0.26460996,0.26460996 0 0 0 0.265625,-0.26367 v -5.99023 a 0.26460996,0.26460996 0 0 0 -0.265625,-0.26563 z"
         id="path24402" />
      <path
         style="color:#000000;fill:#4f697d;stroke-width:0.794984;stroke-linecap:round;stroke-linejoin:round;stroke-miterlimit:1.5;-inkscape-stroke:none"
         d="m -21.287109,380.07617 a 0.2645835,0.2645835 0 0 0 -0.265625,0.26563 0.2645835,0.2645835 0 0 0 0.265625,0.26367 h 0.599609 a 0.2645835,0.2645835 0 0 0 0.263672,-0.26367 0.2645835,0.2645835 0 0 0 -0.263672,-0.26563 z"
         id="path107459" />
      <path
         style="color:#000000;fill:#4f697d;stroke-width:0.794984;stroke-linecap:round;stroke-linejoin:round;stroke-miterlimit:1.5;-inkscape-stroke:none"
         d="m -21.287109,381.27539 a 0.2645835,0.2645835 0 0 0 -0.265625,0.26367 0.2645835,0.2645835 0 0 0 0.265625,0.26563 h 1.796875 a 0.2645835,0.2645835 0 0 0 0.263672,-0.26563 0.2645835,0.2645835 0 0 0 -0.263672,-0.26367 z"
         id="path107559" />
      <path
         style="color:#000000;fill:#4f697d;stroke-width:0.794984;stroke-linecap:round;stroke-linejoin:round;stroke-miterlimit:1.5;-inkscape-stroke:none"
         d="m -21.287109,382.47266 a 0.2645835,0.2645835 0 0 0 -0.265625,0.26562 0.2645835,0.2645835 0 0 0 0.265625,0.26367 h 0.298828 a 0.2645835,0.2645835 0 0 0 0.265625,-0.26367 0.2645835,0.2645835 0 0 0 -0.265625,-0.26562 z"
         id="path107712" />
      <path
         style="color:#000000;fill:#c8dae5;stroke-width:0.794984;stroke-linecap:round;stroke-linejoin:round;stroke-miterlimit:1.5;-inkscape-stroke:none"
         d="m -26.974609,377.72461 -2.845703,1.88672 a 0.26460996,0.26460996 0 0 0 -0.119141,0.2207 v 6.5 a 0.26460996,0.26460996 0 0 0 0.265625,0.26367 h 5.691406 a 0.26460996,0.26460996 0 0 0 0.263672,-0.26367 v -6.5 a 0.26460996,0.26460996 0 0 0 -0.117187,-0.2207 l -2.845704,-1.88672 a 0.26460996,0.26460996 0 0 0 -0.292968,0 z"
         id="path24420" />
      <path
         style="fill:#9ebed1;fill-opacity:1;stroke-width:0.420679;stroke-linecap:round;stroke-linejoin:round;stroke-miterlimit:10;stop-color:#000000"
         d="m -27.604335,378.52218 3.239414,2.14764 c 0.07336,0.0494 0.117186,0.13221 0.116789,0.22066 v 5.70508 h 0.265616 c 0.145314,-5.3e-4 0.262972,-0.11824 0.263551,-0.26355 v -6.49986 c 2.65e-4,-0.0885 -0.04343,-0.17125 -0.11679,-0.22066 l -2.845821,-1.88671 z"
         id="path41968"
         sodipodi:nodetypes="cccccccccc" />
      <path
         style="color:#000000;fill:#ff7247;stroke-width:0.794984;stroke-linecap:round;stroke-linejoin:round;stroke-miterlimit:1.5;-inkscape-stroke:none"
         d="m -26.974609,377.72461 -3.146485,2.09766 a 0.2645835,0.2645835 0 0 0 -0.07227,0.36718 0.2645835,0.2645835 0 0 0 0.367187,0.0723 l 2.998047,-1.99805 2.998047,1.99805 a 0.2645835,0.2645835 0 0 0 0.367187,-0.0723 0.2645835,0.2645835 0 0 0 -0.07422,-0.36718 l -3.144532,-2.09766 a 0.26460996,0.26460996 0 0 0 -0.292968,0 z"
         id="path92969" />
      <g
         id="g56572"
         style="stroke-width:0.794984">
        <path
           style="color:#000000;fill:#fd8c35;stroke-width:0.794984;stroke-linecap:round;stroke-linejoin:round;stroke-miterlimit:1.5;-inkscape-stroke:none"
           d="m -29.3125,384.57031 c -0.508448,0 -0.925781,0.41734 -0.925781,0.92578 v 0.17383 c 0,0.50845 0.417333,0.92578 0.925781,0.92578 h 3.169922 c 0.508447,0 0.925781,-0.41733 0.925781,-0.92578 v -0.17383 c 0,-0.50844 -0.417334,-0.92578 -0.925781,-0.92578 z"
           id="path24220" />
        <path
           id="path53049-3"
           style="color:#000000;display:inline;fill:#fd750d;fill-opacity:1;stroke-width:0.794984;stroke-linecap:round;stroke-linejoin:round;stroke-miterlimit:1.5;-inkscape-stroke:none"
           d="m -29.314738,384.57005 c -0.508447,0 -0.925526,0.41759 -0.925526,0.92604 v 0.13229 h 3.568259 c 0.492902,0 0.900049,0.39233 0.924491,0.87954 0.312526,-0.14925 0.530717,-0.46888 0.530717,-0.83613 v -0.1757 c 0,-0.50845 -0.417595,-0.92604 -0.926042,-0.92604 z" />
        <path
           id="path89664"
           style="color:#000000;fill:#a94c0f;stroke-width:3.00467;stroke-linecap:round;stroke-linejoin:round;stroke-miterlimit:1.5;-inkscape-stroke:none"
           d="m -109.76172,394.97461 v 2.13281 a 1.0000006,1.0000006 0 0 0 1.00391,0.9961 1.0000006,1.0000006 0 0 0 0.99609,-0.9961 v -2.13281 z m 3.96484,0 v 3.26172 a 1.0000006,1.0000006 0 0 0 1.00391,0.99805 1.0000006,1.0000006 0 0 0 0.99609,-0.99805 v -3.26172 z m 3.9629,0 v 2.13281 a 1.0000006,1.0000006 0 0 0 0.99804,0.9961 1.0000006,1.0000006 0 0 0 1.003909,-0.9961 v -2.13281 z"
           transform="matrix(0.26458334,0,0,0.26458334,0,280.06666)" />
      </g>
      <g
         id="g56567"
         style="stroke-width:0.794984">
        <path
           style="color:#000000;fill:#fd8c35;stroke-width:0.794984;stroke-linecap:round;stroke-linejoin:round;stroke-miterlimit:1.5;-inkscape-stroke:none"
           d="m -29.013672,383.07227 c -0.508447,0 -0.925781,0.41733 -0.925781,0.92578 v 0.17578 c 0,0.50844 0.417334,0.92578 0.925781,0.92578 h 3.171875 c 0.508448,0 0.925781,-0.41734 0.925781,-0.92578 v -0.17578 c 0,-0.50845 -0.417333,-0.92578 -0.925781,-0.92578 z"
           id="path24226" />
        <path
           id="path53049"
           style="color:#000000;fill:#fd750d;fill-opacity:1;stroke-width:0.794984;stroke-linecap:round;stroke-linejoin:round;stroke-miterlimit:1.5;-inkscape-stroke:none"
           d="m -29.013733,383.07226 c -0.508447,0 -0.925526,0.41759 -0.925526,0.92604 v 0.13229 H -26.371 c 0.492902,0 0.900049,0.39233 0.924491,0.87954 0.312526,-0.14925 0.530717,-0.46888 0.530717,-0.83613 v -0.1757 c 0,-0.50845 -0.417595,-0.92604 -0.926042,-0.92604 z" />
        <path
           id="path90347"
           style="color:#000000;fill:#a94c0f;stroke-width:0.794984;stroke-linecap:round;stroke-linejoin:round;stroke-miterlimit:1.5;-inkscape-stroke:none"
           d="m -28.740365,383.07226 v 0.86351 a 0.2645835,0.2645835 0 0 0 0.263549,0.26562 0.2645835,0.2645835 0 0 0 0.266133,-0.26562 v -0.86351 z m 1.04903,0 v 0.56431 a 0.2645835,0.2645835 0 0 0 0.263552,0.26406 0.2645835,0.2645835 0 0 0 0.263549,-0.26406 v -0.56431 z m 1.046967,0 v 0.86351 a 0.2645835,0.2645835 0 0 0 0.265616,0.26562 0.2645835,0.2645835 0 0 0 0.26355,-0.26562 v -0.86351 z" />
      </g>
      <path
         id="path57784"
         style="color:#000000;fill:#9ebed1;fill-opacity:1;stroke-width:0.794984;stroke-linecap:round;stroke-linejoin:round;stroke-miterlimit:1.5;-inkscape-stroke:none"
         d="m -14.362948,380.85857 v 5.73699 h 0.26355 c 0.14612,5.6e-4 0.265033,-0.11743 0.265617,-0.26355 v -7.18922 c -2.98e-4,-0.14632 -0.119295,-0.26463 -0.265617,-0.26407 h -8.387085 c -0.145516,5.8e-4 -0.263254,0.11855 -0.26355,0.26407 v 0.2651 h 6.936407 a 1.4506781,1.4506781 45 0 1 1.450678,1.45068 z"
         sodipodi:nodetypes="cccccccccc" />
      <path
         id="path63025"
         style="color:#000000;fill:#74a838;fill-opacity:1;stroke-width:0.794984;stroke-linecap:round;stroke-linejoin:round;stroke-miterlimit:1.5;-inkscape-stroke:none"
         d="m -16.794841,380.07606 a 0.26460996,0.26460996 0 0 0 -0.26355,0.26562 v 0.26355 h 1.232483 a 0.26460996,0.26460996 0 0 1 0.265617,0.26562 v 5.72471 h 0.26355 a 0.26460996,0.26460996 0 0 0 0.265617,-0.26355 v -5.99033 a 0.26460996,0.26460996 0 0 0 -0.265617,-0.26562 z" />
      <path
         style="color:#000000;fill:#4f697d;stroke-width:0.794984;stroke-linecap:round;stroke-linejoin:round;stroke-miterlimit:10;-inkscape-stroke:none"
         d="m -29.939453,386.33203 c 5.04e-4,0.14618 0.119449,0.26425 0.265625,0.26367 h 15.574219 c 0.146176,5.8e-4 0.265121,-0.11749 0.265625,-0.26367 v -0.26367 h -16.105469 z"
         id="path24466"
         sodipodi:nodetypes="ccccccc" />
      <path
         id="path3634"
         style="color:#000000;fill:#ff531f;fill-opacity:1;stroke-width:0.794984;stroke-linecap:round;stroke-linejoin:round;stroke-miterlimit:1.5;-inkscape-stroke:none"
         d="m -25.18141,374.68569 a 0.26460996,0.26460996 0 0 0 -0.242361,0.1602 l -0.15813,0.36897 h 8.55865 a 0.26460996,0.26460996 0 0 1 0.242363,0.1602 l 0.82889,1.93528 h 0.356051 a 0.26460996,0.26460996 0 0 0 0.242362,-0.3669 l -0.898136,-2.09755 a 0.26460996,0.26460996 0 0 0 -0.242363,-0.1602 z" />
      <path
         style="color:#000000;fill:#e2f0fa;stroke-width:0.794984;stroke-linecap:round;stroke-linejoin:round;stroke-miterlimit:1.5;-inkscape-stroke:none"
         d="m -20.054687,373.75195 v 1.79688 c -5.62e-4,0.14693 0.118693,0.26618 0.265625,0.26562 h 1.796875 c 0.146168,-5.2e-4 0.26423,-0.11945 0.263671,-0.26562 v -1.79688 z"
         id="path24472"
         sodipodi:nodetypes="ccccccc" />
      <path
         id="path23683"
         style="color:#000000;fill:#c8dae5;fill-opacity:1;stroke-width:0.794984;stroke-linecap:round;stroke-linejoin:round;stroke-miterlimit:1.5;-inkscape-stroke:none"
         d="m -20.05459,373.7519 v 0.60892 h 1.286468 a 0.51032164,0.51032164 45 0 1 0.510322,0.51032 v 0.94317 h 0.265616 c 0.146168,-5.3e-4 0.264109,-0.11945 0.26355,-0.26562 v -1.79679 z"
         sodipodi:nodetypes="cccccccc" />
      <path
         style="color:#000000;fill:#ff7247;stroke-width:0.794984;stroke-linecap:round;stroke-linejoin:round;stroke-miterlimit:1.5;-inkscape-stroke:none"
         d="m -20.089844,373.48633 a 0.2645835,0.2645835 0 0 0 -0.263672,0.26562 0.2645835,0.2645835 0 0 0 0.263672,0.26367 h 2.396485 a 0.2645835,0.2645835 0 0 0 0.265625,-0.26367 0.2645835,0.2645835 0 0 0 -0.265625,-0.26562 z"
         id="path100611" />
      <g
         id="g49130"
         style="stroke-width:0.794984">
        <g
           id="g49124"
           style="stroke-width:0.794984">
          <path
             style="color:#000000;fill:#fd8c35;stroke-width:0.794984;stroke-linecap:round;stroke-linejoin:round;stroke-miterlimit:1.5;-inkscape-stroke:none"
             d="m -29.3125,381.57422 c -0.508448,0 -0.925781,0.41734 -0.925781,0.92578 v 0.17578 c 0,0.50844 0.417333,0.92578 0.925781,0.92578 h 3.169922 c 0.508447,0 0.925781,-0.41734 0.925781,-0.92578 V 382.5 c 0,-0.50844 -0.417334,-0.92578 -0.925781,-0.92578 z"
             id="path24232" />
          <path
             id="path44712"
             style="color:#000000;fill:#fd750d;fill-opacity:1;stroke-width:0.794984;stroke-linecap:round;stroke-linejoin:round;stroke-miterlimit:1.5;-inkscape-stroke:none"
             d="m -29.312424,381.57416 c -0.366826,0 -0.686138,0.21722 -0.835607,0.52917 h 3.476273 c 0.508448,0 0.926042,0.4176 0.926042,0.92604 v 0.48214 c 0.311737,-0.14955 0.529167,-0.46894 0.529167,-0.83561 v -0.1757 c 0,-0.50844 -0.417595,-0.92604 -0.926042,-0.92604 z" />
        </g>
        <path
           id="path90369"
           style="color:#000000;fill:#a94c0f;stroke-width:0.794984;stroke-linecap:round;stroke-linejoin:round;stroke-miterlimit:1.5;-inkscape-stroke:none"
           d="m -29.041122,381.57416 v 0.56431 a 0.2645835,0.2645835 0 0 0 0.265618,0.26406 0.2645835,0.2645835 0 0 0 0.263548,-0.26406 v -0.56431 z m 1.04903,0 v 0.86351 a 0.2645835,0.2645835 0 0 0 0.265618,0.26562 0.2645835,0.2645835 0 0 0 0.263549,-0.26562 v -0.86351 z m 1.048518,0 v 0.56431 a 0.2645835,0.2645835 0 0 0 0.264064,0.26406 0.2645835,0.2645835 0 0 0 0.265618,-0.26406 v -0.56431 z" />
      </g>
    </g>
  </g>
</svg>
