<svg width="31" height="34" viewBox="0 0 31 34" fill="none" xmlns="http://www.w3.org/2000/svg">
<path fill-rule="evenodd" clip-rule="evenodd" d="M7.7677 7.81666C8.10234 7.92821 8.38121 8.09553 8.71585 8.20708C8.54853 6.31077 7.87924 2.4066 6.42912 1.40267C5.03478 0.398745 2.80383 0.90071 2.07877 2.4066C1.52103 3.57785 2.02299 5.19529 1.5768 6.47809C1.18639 7.64934 0.517099 8.76482 0.628647 10.1034C0.572873 10.9958 0.517099 12.1112 0.517099 12.6132C0.461325 13.0036 0.517099 13.5056 0.740195 14.1749C0.907516 14.6211 1.01906 14.9557 1.01906 15.2904C0.96329 15.5135 0.851742 15.6808 0.740195 15.9039C0.182456 16.6289 0.405552 17.5771 1.40948 17.7444C1.7999 17.856 3.02692 18.0233 3.02692 18.0233C3.47311 16.6847 4.64436 18.0233 4.979 16.127C5.09055 15.5692 5.09055 14.5653 5.09055 14.5653C5.09055 14.5653 4.36549 14.0076 4.979 13.1152C5.48097 12.4459 7.09841 9.48988 7.7677 7.92821V7.81666Z" fill="#334A5E"/>
<path fill-rule="evenodd" clip-rule="evenodd" d="M2.58043 28.7868C3.80745 32.6352 7.82317 33.3045 11.4485 33.0814C12.2851 32.9141 13.1775 32.7468 13.9583 32.4679C17.974 30.9062 19.5914 25.7751 17.2489 22.3171C15.3526 22.819 14.1814 21.9824 12.062 21.2574C10.9465 20.867 8.54823 21.7593 7.87894 20.365C3.69591 20.867 1.40918 24.9384 2.6362 28.7868H2.58043Z" fill="#ACB5BC"/>
<path fill-rule="evenodd" clip-rule="evenodd" d="M12.5085 16.7956C12.5085 17.4649 12.4527 17.6322 11.895 17.8553C11.5045 18.0226 11.0583 18.0784 10.6122 18.3015C10.166 18.5246 8.77162 19.417 8.43697 19.417C8.32543 19.5843 8.49275 19.417 8.26965 19.5843C8.21388 19.5843 8.10233 19.6401 8.04656 19.6959C7.87924 19.7516 7.87924 19.7516 7.71191 19.8632L7.76769 20.3651L8.32543 21.4806C11.2814 23.6558 14.0701 23.1538 17.1377 22.3172C17.7512 22.1499 18.9782 21.7595 19.4802 21.4806L19.7591 21.4248C19.7591 21.4806 19.8148 21.5922 19.8148 21.6479L19.8706 21.7595C20.4283 21.7595 20.9303 21.7037 21.4323 21.6479C21.99 21.5364 22.3804 21.3691 22.7708 21.2575C22.8824 21.146 22.9939 21.0902 23.217 20.9787C23.217 20.4767 22.7151 19.417 22.492 19.0266C21.5996 17.688 19.7591 17.9669 18.0301 17.9669C17.8627 17.9669 17.5839 17.9669 17.3608 18.0226L17.7512 17.5207C17.9743 17.4091 17.9185 17.2418 18.4763 16.6283C19.7591 15.234 19.7591 15.5128 20.9861 14.5647C20.0379 14.0627 20.0937 13.003 19.9822 12.4453C19.9264 12.2222 20.0937 12.1664 19.8706 12.2779C19.4244 12.3895 18.4763 13.0588 17.9743 13.3376L13.4008 16.1821C13.122 16.4052 12.8431 16.6283 12.5085 16.7956Z" fill="#405A6C"/>
<path fill-rule="evenodd" clip-rule="evenodd" d="M4.31016 7.92743C3.5851 8.37362 3.08314 8.70826 2.7485 9.71219L2.02344 12.7797C2.63695 12.6682 2.86004 12.6682 3.69665 13.3375C3.91975 13.5048 3.86397 13.5048 4.08707 13.6164L4.25439 13.3375C4.92368 14.3972 5.59296 16.0146 6.26225 17.1859C6.65266 17.9109 7.2104 18.9706 7.26618 19.9188C7.48927 19.863 7.4335 19.863 7.65659 19.863C7.76814 19.7515 7.82391 19.7515 7.99124 19.6957C8.04701 19.6957 8.15856 19.6399 8.21433 19.5842C8.43743 19.4726 8.27011 19.5842 8.38165 19.4168C8.7163 19.3611 10.1106 18.4687 10.5568 18.3014C11.003 18.134 11.3934 18.0225 11.8396 17.8552C12.3974 17.6321 12.4531 17.409 12.4531 16.7955C11.4492 15.3453 10.5568 12.8913 10.5568 11.1065C10.5568 10.7719 10.6126 10.493 10.6126 10.1584C10.5568 8.54094 9.16249 8.65249 8.66052 8.15052C8.32588 8.09475 7.99124 7.87165 7.65659 7.7601C7.4335 7.70433 7.37772 7.59278 7.26618 7.48124C7.15463 7.36969 6.98731 7.31391 6.98731 7.03504C6.87576 6.81195 6.81999 6.58885 6.76421 6.36576C6.76421 6.25421 6.70844 6.08689 6.70844 5.97534L6.65266 6.03112L6.54112 6.53308C5.76028 7.70433 5.25832 7.20237 4.14284 6.86772C4.36594 7.36969 4.70058 7.64856 4.25439 7.92743H4.31016Z" fill="#87A0D1"/>
<path fill-rule="evenodd" clip-rule="evenodd" d="M4.14258 8.0396C4.53299 8.26269 4.97919 8.43001 5.48115 8.43001C6.20621 8.43001 6.8755 8.09537 7.37746 7.59341C7.37746 7.59341 7.37746 7.59341 7.32169 7.53763C7.21014 7.42608 7.04282 7.37031 7.04282 7.09144L6.76395 6.03174L6.70817 6.08751L6.59663 6.58948C5.81579 7.76073 5.31383 7.25876 4.19835 6.92412C4.42145 7.42608 4.75609 7.70495 4.14258 8.09537V8.0396Z" fill="#FAB74B"/>
<path fill-rule="evenodd" clip-rule="evenodd" d="M1.29785 16.2939C1.46517 16.4612 1.85559 17.4094 2.02291 17.6883C2.80374 19.0268 3.7519 20.5327 4.36541 21.7598C4.42119 22.0944 4.30964 22.3733 4.30964 22.6521C1.91136 27.8391 7.32142 25.887 5.48089 21.0905C5.20202 20.9231 4.47696 19.1942 4.36541 18.8037C3.80767 17.5209 3.08261 16.517 3.58458 15.1784C3.7519 14.6765 4.03077 14.0072 4.19809 13.6168C3.64035 13.1706 3.19416 12.3898 2.13446 12.7244C1.96714 12.9475 1.35363 16.0708 1.35363 16.2381L1.29785 16.2939Z" fill="#FED15A"/>
<path fill-rule="evenodd" clip-rule="evenodd" d="M22.0459 10.772C22.1017 11.1624 22.5479 11.6086 22.771 11.8317C22.9383 11.999 22.9941 12.1106 23.2171 12.2779C23.3845 12.3895 23.5518 12.4452 23.7191 12.6683C24.2769 12.3895 25.0577 11.3298 25.4481 10.6605C25.8943 9.87964 26.3405 9.09881 26.7867 8.31797C26.7309 8.31797 27.0655 7.87178 27.1771 7.81601C27.6791 7.64869 28.181 7.48137 28.5714 7.03518C28.6272 6.9794 28.683 6.86786 28.7388 6.81208C28.9619 6.19857 29.3523 4.97155 29.7427 4.6369C30.9139 3.63297 30.8582 1.68089 29.3523 2.85214C28.9061 3.18678 28.0137 4.07916 27.5675 4.58113C26.2847 5.36196 25.1135 8.20643 23.7191 9.37768C23.1056 9.87964 22.7152 10.3816 22.1017 10.772H22.0459Z" fill="#405A6C"/>
<path fill-rule="evenodd" clip-rule="evenodd" d="M20.0938 25.7197C20.2611 26.6678 20.8188 27.7275 20.8746 28.7872C20.9304 29.4007 20.7073 30.1258 20.9304 30.6835C21.0419 31.0182 21.3208 31.1297 21.5996 31.2413C21.8785 31.4644 22.1574 31.6875 22.4363 31.9106C22.994 32.2452 24.0537 32.5799 24.723 32.3568C25.2249 32.1894 24.8903 31.5202 24.5557 31.0182C23.8864 30.07 23.1055 29.1777 22.7709 28.0064C22.6036 27.2256 22.4363 26.5005 22.492 25.4966C22.1016 25.5524 21.7112 25.6639 21.3208 25.7197C20.9304 25.7755 20.3726 25.6639 20.0938 25.7755V25.7197Z" fill="#405A6C"/>
<path fill-rule="evenodd" clip-rule="evenodd" d="M20.0944 25.7196C20.3733 25.6081 20.931 25.7196 21.3214 25.6638C21.7118 25.6081 22.1023 25.4965 22.4927 25.4407C22.4369 24.1022 22.66 22.5963 22.8273 21.3135C22.3811 21.3693 21.9907 21.5923 21.4888 21.7039C20.9868 21.8154 20.4848 21.8154 19.9271 21.8154L19.8713 21.7039C19.9271 22.3732 19.7598 23.154 19.7598 23.8791C19.7598 24.3253 19.8713 25.4965 20.0944 25.7754V25.7196Z" fill="#FED15A"/>
<path fill-rule="evenodd" clip-rule="evenodd" d="M21.2653 14.4534C21.7673 14.2303 23.6078 12.9475 23.7752 12.6129C23.6078 12.4455 23.4405 12.3898 23.2732 12.2224C23.0501 12.0551 22.9943 11.9994 22.827 11.7763C22.6039 11.5532 22.1577 11.107 22.1019 10.7166C21.6 11.2185 21.0422 11.4416 20.5403 11.8878C20.3172 11.9994 20.0941 12.1109 19.9268 12.2782C20.1499 12.2224 19.9825 12.2224 20.0383 12.4455C20.1499 13.0033 20.0941 14.0072 21.0422 14.5649L21.3211 14.3976L21.2653 14.4534Z" fill="#ECC156"/>
<path fill-rule="evenodd" clip-rule="evenodd" d="M7.09868 20.477L7.82374 20.3096L7.76796 19.8077C7.54487 19.8077 7.60064 19.8635 7.37755 19.8635C7.32177 18.9153 6.76403 17.7998 6.37362 17.1305C6.15052 16.6843 5.36969 14.788 5.09082 14.5649C5.20237 15.4015 4.97927 15.4573 5.31392 16.3497C5.48124 16.7959 5.70433 17.2421 5.87165 17.6883C6.15052 18.3576 6.65249 20.0308 7.0429 20.477H7.09868Z" fill="#ECC156"/>
<path fill-rule="evenodd" clip-rule="evenodd" d="M6.87525 3.91226C7.20989 4.97197 6.87525 7.14714 5.81555 7.48179C4.75585 7.81643 3.30573 6.19899 2.97108 5.08351C2.63644 4.02381 3.24995 2.85256 4.36543 2.51792C5.42513 2.18327 6.59638 2.74101 6.93102 3.91226H6.87525Z" fill="#FED15A"/>
<path fill-rule="evenodd" clip-rule="evenodd" d="M3.08269 3.63341C3.08269 3.63341 3.30579 2.96412 4.14239 2.85258C4.92323 2.7968 5.42519 3.74496 5.64829 3.63341C5.87138 3.52186 6.31757 3.18722 6.48489 3.35454C6.70799 3.52186 6.87531 3.85651 6.87531 3.85651C6.87531 3.85651 6.42912 2.35061 6.0387 2.12752C5.59251 1.90442 5.09055 1.40246 4.58858 1.51401C4.08662 1.68133 3.80775 1.68133 3.30579 2.01597C2.85959 2.35061 2.74805 2.51793 2.74805 2.51793L3.08269 3.52186V3.63341Z" fill="#334A5E"/>
</svg>
