<?xml version="1.0" ?><svg id="flat" viewBox="0 0 512 512" xmlns="http://www.w3.org/2000/svg"><path d="M152,312H136V272a16.01833,16.01833,0,0,0-16-16H88a16.01833,16.01833,0,0,0-16,16v40H56V272a32.03635,32.03635,0,0,1,32-32h32a32.03635,32.03635,0,0,1,32,32Z" style="fill:#718799"/><rect height="200" style="fill:#718799" width="112" x="160" y="224"/><polygon points="272 456 304 472 304 488 240 488 240 456 272 456" style="fill:#d1e4ff"/><path d="M224,424H208V288a8,8,0,0,1,8-8h0a8,8,0,0,1,8,8Z" style="fill:#62798c"/><rect height="32" style="fill:#ffceb6" width="32" x="240" y="424"/><polygon points="208 456 240 472 240 488 176 488 176 456 208 456" style="fill:#e0edff"/><rect height="32" style="fill:#ffceb6" width="32" x="176" y="424"/><polygon points="88 216 88 256 120 256 128 216 88 216" style="fill:#ffd9c7"/><path d="M344,232l-24,16-48-48v24H160V152l-24,24-8,40H88V163.83984A32.01288,32.01288,0,0,1,95.7,143.01l25.93-30.25A47.99639,47.99639,0,0,1,158.08,96H263.93994a48.00289,48.00289,0,0,1,47.23,39.40991L320,184Z" style="fill:#ffc431"/><polygon points="344 232 320 248 296 224 328 200 344 232" style="fill:#ffd9c7"/><path d="M192,56h48a0,0,0,0,1,0,0V80a24,24,0,0,1-24,24h0a24,24,0,0,1-24-24V56A0,0,0,0,1,192,56Z" style="fill:#ffd9c7"/><path d="M192,56V40l19.359-12.906A18.42223,18.42223,0,0,1,221.57779,24h0A18.42218,18.42218,0,0,1,240,42.42219V56Z" style="fill:#b1712c"/><path d="M184,336V456H24V336a24.00619,24.00619,0,0,1,24-24H160A24.00619,24.00619,0,0,1,184,336Z" style="fill:#548aff"/><path d="M80,456v16a16,16,0,0,1-16,16h0a16,16,0,0,1-16-16V456Z" style="fill:#718799"/><path d="M160,456v16a16,16,0,0,1-16,16h0a16,16,0,0,1-16-16V456Z" style="fill:#718799"/><path d="M56,312v40H24V336a24,24,0,0,1,24-24Z" style="fill:#4f7ff7"/><path d="M144,312a24,24,0,0,0-24-24H88a24,24,0,0,0-24,24Z" style="fill:#4976f2"/><path d="M80,384v72H64V384a8,8,0,0,1,16,0Z" style="fill:#4f7ff7"/><path d="M112,384v72H96V384a8,8,0,0,1,16,0Z" style="fill:#4f7ff7"/><path d="M144,384v72H128V384a8,8,0,0,1,16,0Z" style="fill:#4f7ff7"/><path d="M152,312v40h32V336a24,24,0,0,0-24-24Z" style="fill:#4f7ff7"/><path d="M488,112a88,88,0,1,1-88-88A87.53778,87.53778,0,0,1,488,112Z" style="fill:#02c26a"/><rect height="40" rx="11.99999" style="fill:#3cde8d" width="24" x="344" y="80"/><path d="M435.31371,116.68629l9.37258-9.37258a11.31372,11.31372,0,0,0,3.31371-8h0A11.31369,11.31369,0,0,0,436.6863,88h0a11.31372,11.31372,0,0,0-8,3.31371l-9.37258,9.37258a11.31372,11.31372,0,0,0-3.31371,8h0A11.31369,11.31369,0,0,0,427.3137,120h0A11.31372,11.31372,0,0,0,435.31371,116.68629Z" style="fill:#3cde8d"/><path d="M360,155.31006v.01a11.30938,11.30938,0,0,1-3.31006,7.99l-14.78,14.77978a88.07149,88.07149,0,0,1-14.97-17.02978l13.75-13.75a11.30938,11.30938,0,0,1,7.99-3.31006h.01A11.31824,11.31824,0,0,1,360,155.31006Z" style="fill:#3cde8d"/><path d="M473.06006,161.06006a88.07149,88.07149,0,0,1-14.97,17.02978l-14.78-14.77978a11.31371,11.31371,0,0,1,16-16Z" style="fill:#3cde8d"/><path d="M396.68629,76.68629l-9.37258-9.37258a11.31372,11.31372,0,0,1-3.31371-8h0A11.31369,11.31369,0,0,1,395.3137,48h0a11.31372,11.31372,0,0,1,8,3.31371l9.37258,9.37258a11.31372,11.31372,0,0,1,3.31371,8h0A11.31369,11.31369,0,0,1,404.6863,80h0A11.31372,11.31372,0,0,1,396.68629,76.68629Z" style="fill:#3cde8d"/><path d="M396.68629,156.68629l-9.37258-9.37258a11.31372,11.31372,0,0,1-3.31371-8h0A11.31369,11.31369,0,0,1,395.3137,128h0a11.31372,11.31372,0,0,1,8,3.31371l9.37258,9.37258a11.31372,11.31372,0,0,1,3.31371,8h0A11.31369,11.31369,0,0,1,404.6863,160h0A11.31372,11.31372,0,0,1,396.68629,156.68629Z" style="fill:#3cde8d"/><rect height="80" style="fill:#ffb401" width="16" x="256" y="144"/></svg>