<?xml version="1.0" encoding="utf-8"?>
<!-- Generator: Adobe Illustrator 23.1.0, SVG Export Plug-In . SVG Version: 6.00 Build 0)  -->
<svg version="1.1" id="Layer_1" xmlns="http://www.w3.org/2000/svg" xmlns:xlink="http://www.w3.org/1999/xlink" x="0px" y="0px"
	 viewBox="0 0 64 64" style="enable-background:new 0 0 64 64;" xml:space="preserve">
<style type="text/css">
	.st0{fill:#D1D3D4;}
	.st1{fill:#603913;}
	.st2{fill:#A7A9AC;}
	.st3{fill:#C09EC9;}
	.st4{fill:#BCBEC0;}
	.st5{fill:#FFFFFF;}
	.st6{fill:#FBB040;}
	.st7{fill:#F7941D;}
	.st8{fill:#F5ACCC;}
	.st9{fill:#D7DF23;}
	.st10{fill:#A0DAE3;}
	.st11{fill:#00AEEF;}
	.st12{fill:#92278F;}
	.st13{fill:#E6E7E8;}
	.st14{fill:#ED1C24;}
	.st15{fill:#939598;}
	.st16{fill:#C2B59B;}
	.st17{fill:#3C2415;}
	.st18{fill:#C49A6C;}
	.st19{fill:#FDCE8F;}
	.st20{fill:#262262;}
	.st21{fill:#808285;}
	.st22{fill:#231F20;}
	.st23{fill:#BE1E2D;}
	.st24{fill:#FFFAC7;}
	.st25{fill:#27AAE1;}
	.st26{fill:#F1F2F2;}
	.st27{fill:#2BB673;}
	.st28{fill:#58595B;}
	.st29{fill:#00A79D;}
</style>
<g>
	<g>
		<path class="st1" d="M57.6,31.4H6.7c-0.4,0-0.8-0.2-0.9-0.6C5.6,30.4,5.7,30,6,29.7L31.4,4.6c0.4-0.4,1-0.4,1.4,0l25.5,25.1
			c0.3,0.3,0.4,0.7,0.2,1.1C58.4,31.2,58,31.4,57.6,31.4z M9.1,29.4h46.1l-23-22.7L9.1,29.4z"/>
	</g>
	<g>
		<path class="st18" d="M2,52.9c0,3.8,3.1,6.9,6.9,6.9h46.2c3.8,0,6.9-3.1,6.9-6.9v-17c0-3.8-3.1-6.9-6.9-6.9H8.9
			C5.1,29,2,32.1,2,35.9V52.9z"/>
		<path class="st1" d="M55.1,60.8H8.9c-4.3,0-7.9-3.5-7.9-7.9v-17C1,31.5,4.5,28,8.9,28h46.2c4.3,0,7.9,3.5,7.9,7.9v17
			C63,57.2,59.5,60.8,55.1,60.8z M8.9,30C5.6,30,3,32.6,3,35.9v17c0,3.2,2.6,5.9,5.9,5.9h46.2c3.2,0,5.9-2.6,5.9-5.9v-17
			c0-3.2-2.6-5.9-5.9-5.9H8.9z"/>
	</g>
	<g>
		<path class="st5" d="M29.3,7.5c0,1.8,1.5,3.2,3.2,3.2c1.8,0,3.2-1.5,3.2-3.2c0-1.8-1.5-3.2-3.2-3.2C30.7,4.2,29.3,5.7,29.3,7.5z"
			/>
		<path class="st1" d="M32.5,11.7c-2.3,0-4.2-1.9-4.2-4.2c0-2.3,1.9-4.2,4.2-4.2c2.3,0,4.2,1.9,4.2,4.2
			C36.7,9.8,34.8,11.7,32.5,11.7z M32.5,5.2c-1.2,0-2.2,1-2.2,2.2c0,1.2,1,2.2,2.2,2.2s2.2-1,2.2-2.2C34.7,6.2,33.7,5.2,32.5,5.2z"
			/>
	</g>
	<g>
		<g>
			<path class="st5" d="M14.4,37.5c1,0,1.9,0.2,2.7,0.6c0.9,0.4,1.6,0.9,2.2,1.5c0.6,0.6,1.1,1.4,1.5,2.2c0.4,0.9,0.6,1.8,0.6,2.7
				c0,1-0.2,1.9-0.6,2.7c-0.4,0.9-0.9,1.6-1.5,2.2c-0.6,0.6-1.4,1.1-2.2,1.5c-0.9,0.4-1.8,0.6-2.7,0.6c-1,0-1.9-0.2-2.7-0.6
				c-0.9-0.4-1.6-0.9-2.2-1.5c-0.6-0.6-1.1-1.4-1.5-2.2c-0.4-0.9-0.6-1.8-0.6-2.7c0-1,0.2-1.9,0.6-2.7c0.4-0.9,0.9-1.6,1.5-2.2
				c0.6-0.6,1.4-1.1,2.2-1.5C12.5,37.7,13.4,37.5,14.4,37.5z M14.4,48.4c0.5,0,1-0.1,1.5-0.3c0.5-0.2,0.9-0.5,1.2-0.8
				c0.3-0.3,0.6-0.7,0.8-1.2c0.2-0.5,0.3-0.9,0.3-1.5c0-0.5-0.1-1-0.3-1.5c-0.2-0.5-0.5-0.9-0.8-1.2c-0.3-0.3-0.7-0.6-1.2-0.8
				c-0.5-0.2-1-0.3-1.5-0.3c-0.5,0-1,0.1-1.5,0.3c-0.5,0.2-0.9,0.5-1.2,0.8c-0.3,0.3-0.6,0.7-0.8,1.2c-0.2,0.5-0.3,0.9-0.3,1.5
				c0,0.5,0.1,1,0.3,1.5c0.2,0.5,0.5,0.9,0.8,1.2c0.3,0.3,0.7,0.6,1.2,0.8C13.4,48.3,13.9,48.4,14.4,48.4z"/>
		</g>
		<g>
			<path class="st5" d="M31.4,43.5c0,0.8-0.1,1.6-0.4,2.3c-0.3,0.7-0.7,1.3-1.2,1.9c-0.5,0.5-1.1,1-1.8,1.3
				c-0.7,0.3-1.4,0.5-2.3,0.5v2.2h-3.2v-14h3.2c0.8,0,1.6,0.2,2.3,0.5c0.7,0.3,1.3,0.7,1.8,1.3c0.5,0.5,0.9,1.2,1.2,1.9
				C31.3,41.9,31.4,42.7,31.4,43.5z M25.7,46.1c0.4,0,0.7-0.1,1-0.2c0.3-0.1,0.6-0.3,0.8-0.6c0.2-0.2,0.4-0.5,0.5-0.8
				c0.1-0.3,0.2-0.7,0.2-1c0-0.4-0.1-0.7-0.2-1c-0.1-0.3-0.3-0.6-0.5-0.8c-0.2-0.2-0.5-0.4-0.8-0.6c-0.3-0.1-0.6-0.2-1-0.2V46.1z"/>
		</g>
		<g>
			<path class="st5" d="M42.2,40.8h-5.8v2.1h4.7v3.2h-4.7v2.2h5.8v3.2h-9v-14l9,0V40.8z"/>
		</g>
		<g>
			<path class="st5" d="M51.9,37.6h3.2v14h-3.5l-4.6-8.2v8.2h-3.2v-14h3.5l4.6,8.2V37.6z"/>
		</g>
	</g>
	<g>
		<line class="st5" x1="53.6" y1="32.3" x2="24.3" y2="32.3"/>
		<path class="st1" d="M53.6,33.3H24.3c-0.6,0-1-0.4-1-1s0.4-1,1-1h29.3c0.6,0,1,0.4,1,1S54.2,33.3,53.6,33.3z"/>
	</g>
</g>
</svg>
