<?xml version="1.0" ?><svg id="Layer_1_1_" style="enable-background:new 0 0 64 64;" version="1.1" viewBox="0 0 64 64" xml:space="preserve" xmlns="http://www.w3.org/2000/svg" xmlns:xlink="http://www.w3.org/1999/xlink"><g><g><path d="M55.326,58H60c1.105,0,2-0.895,2-2V45.828c0-0.53-0.211-1.039-0.586-1.414L60,43V22h-4L55.326,58z" style="fill:#DFB28B;"/><path d="M24,30H13.883c-1.722,0-3.25,1.102-3.795,2.735L8,39l-3.265,1.088C3.102,40.633,2,42.161,2,43.883    V56c0,1.105,0.895,2,2,2h20V30z" style="fill:#DFB28B;"/><rect height="6" style="fill:#ECC19C;" width="18.674" x="24" y="52"/><polygon points="56,46 56,24 49.997,24 30.002,24 24,24 24,46   " style="fill:#AAB2BD;"/><rect height="10" style="fill:#B27946;" width="32" x="24" y="42"/><path d="M9.516,52H2.261H2v4c0,1.105,0.895,2,2,2h20v-6H9.87H9.516z" style="fill:#B27946;"/><path d="M55.326,58H60c1.105,0,2-0.895,2-2v-4h-6.562L55.326,58z" style="fill:#ECC19C;"/><path d="M56,24h-6h-4h-4h-4h-4h-4h-6v6.46c1.063,0.954,2.462,1.54,4,1.54s2.937-0.586,4-1.54    c1.063,0.954,2.462,1.54,4,1.54s2.937-0.586,4-1.54c1.063,0.954,2.462,1.54,4,1.54s2.937-0.586,4-1.54    c1.063,0.954,2.462,1.54,4,1.54s2.937-0.586,4-1.54V24z" style="fill:#969FAA;"/><path d="M32,26c0,2.209-1.791,4-4,4h0c-2.209,0-4-1.791-4-4H32z" style="fill:#E9573F;"/><path d="M40,26c0,2.209-1.791,4-4,4h0c-2.209,0-4-1.791-4-4H40z" style="fill:#E6E9ED;"/><circle cx="49" cy="55" r="7" style="fill:#51565B;"/><circle cx="49" cy="55" r="3" style="fill:#969FAA;"/><path d="M48,26c0,2.209-1.791,4-4,4h0c-2.209,0-4-1.791-4-4H48z" style="fill:#E9573F;"/><path d="M56,26c0,2.209-1.791,4-4,4h0c-2.209,0-4-1.791-4-4H56z" style="fill:#E6E9ED;"/><path d="M20,50.106V34h-5.279c-0.43,0-0.813,0.275-0.949,0.684l-1.721,5.162    C12.017,39.948,12,40.055,12,40.162v8.512L20,50.106z" style="fill:#CF9E76;"/><path d="M14.721,34c-0.43,0-0.813,0.275-0.949,0.684l-1.721,5.162c-0.017,0.05-0.016,0.103-0.025,0.154H20    v-6H14.721z" style="fill:#E6E9ED;"/><rect height="8" style="fill:#FF826E;" width="32" x="24" y="18"/><circle cx="15" cy="55" r="7" style="fill:#51565B;"/><path d="M27.62,18c2.102,3.619,6.02,6,10.38,6h4c4.36,0,8.279-2.381,10.38-6H27.62z" style="fill:#FC6E51;"/><path d="M28.201,10C29.128,5.436,33.162,2,38,2h4c4.838,0,8.872,3.436,9.799,8v4    c-0.927,4.564-4.961,8-9.799,8h-4c-4.838,0-8.872-3.436-9.799-8V10z" style="fill:#CF9E76;"/><path d="M28.201,12v2c0.142,0.697,0.364,1.364,0.642,2h22.315c0.278-0.636,0.5-1.303,0.642-2v-2H28.201z" style="fill:#B27946;"/><path d="M51,14H29c-1.105,0-2-0.895-2-2v0c0-1.105,0.895-2,2-2h22c1.105,0,2,0.895,2,2v0    C53,13.105,52.105,14,51,14z" style="fill:#FC6E51;"/><circle cx="15" cy="55" r="3" style="fill:#969FAA;"/><rect height="4" style="fill:#FCD770;" width="6" x="28" y="38"/><rect height="8" style="fill:#FCD770;" width="4" x="38" y="34"/><rect height="22" style="fill:#CF9E76;" width="2" x="22" y="30"/><rect height="30" style="fill:#CF9E76;" width="2" x="56" y="22"/></g><g><path d="M15,51c-2.206,0-4,1.794-4,4s1.794,4,4,4s4-1.794,4-4S17.206,51,15,51z M15,57c-1.103,0-2-0.897-2-2s0.897-2,2-2    s2,0.897,2,2S16.103,57,15,57z"/><path d="M49,51c-2.206,0-4,1.794-4,4s1.794,4,4,4s4-1.794,4-4S51.206,51,49,51z M49,57c-1.103,0-2-0.897-2-2s0.897-2,2-2    s2,0.897,2,2S50.103,57,49,57z"/><path d="M62.121,43.707L61,42.586V21h-4v-4h-5.206c0.407-0.794,0.717-1.648,0.922-2.546C53.49,13.911,54,13.016,54,12    s-0.51-1.911-1.284-2.454C51.582,4.58,47.122,1,42,1h-4c-5.122,0-9.582,3.58-10.716,8.546C26.51,10.089,26,10.984,26,12    s0.51,1.911,1.284,2.454c0.205,0.898,0.515,1.751,0.922,2.546H23v12h-9.117c-2.155,0-4.062,1.374-4.743,3.418l-1.93,5.791    l-2.791,0.93C2.374,39.821,1,41.728,1,43.883V56c0,1.654,1.346,3,3,3h4.082c1.386,2.387,3.964,4,6.918,4s5.532-1.613,6.918-4    h20.165c1.386,2.387,3.964,4,6.918,4s5.532-1.613,6.918-4H60c1.654,0,3-1.346,3-3V45.829C63,45.027,62.688,44.273,62.121,43.707z     M59,23v20.414l1.707,1.707C60.896,45.31,61,45.562,61,45.829V51h-4V23H59z M28,31c1.641,0,3.088-0.806,4-2.031    C32.912,30.194,34.359,31,36,31s3.088-0.806,4-2.031C40.912,30.194,42.359,31,44,31s3.088-0.806,4-2.031    C48.912,30.194,50.359,31,52,31c1.13,0,2.162-0.391,3-1.026V41H43v-8h-6v8h-2v-4h-8v4h-2V29.974C25.838,30.609,26.87,31,28,31z     M25.184,27h5.631c-0.414,1.161-1.514,2-2.816,2S25.598,28.161,25.184,27z M33.184,27h5.631c-0.414,1.161-1.514,2-2.816,2    S33.598,28.161,33.184,27z M41.184,27h5.631c-0.414,1.161-1.514,2-2.816,2S41.598,28.161,41.184,27z M49.184,27h5.631    c-0.414,1.161-1.514,2-2.816,2S49.598,28.161,49.184,27z M41,41h-2v-6h2V41z M33,41h-4v-2h4V41z M25,43h30v6.726    C53.533,48.059,51.39,47,49,47c-2.953,0-5.532,1.613-6.918,4H25V43z M29,11h22c0.551,0,1,0.449,1,1s-0.449,1-1,1H29    c-0.551,0-1-0.449-1-1S28.449,11,29,11z M50.478,15c-1.253,3.538-4.637,6-8.478,6h-4c-3.841,0-7.225-2.462-8.478-6H50.478z M38,3    h4c3.841,0,7.225,2.462,8.478,6H29.522C30.775,5.462,34.159,3,38,3z M29.532,19c2.041,2.458,5.111,4,8.468,4h4    c3.358,0,6.428-1.542,8.468-4H55v6H25v-6H29.532z M5.051,41.037l3.739-1.247l2.247-6.739C11.446,31.824,12.59,31,13.883,31H23v20    h-1.082c-0.264-0.455-0.572-0.881-0.918-1.274V33h-6.279c-0.862,0-1.625,0.549-1.897,1.367l-1.72,5.162    C11.035,39.733,11,39.946,11,40.162v7.92C9.791,48.784,8.784,49.791,8.082,51H3v-7.117C3,42.59,3.824,41.446,5.051,41.037z M19,39    h-5.612l1.333-4H19V39z M13,41h6v7.082C17.822,47.398,16.458,47,15,47c-0.692,0-1.359,0.097-2,0.263V41z M4,57    c-0.551,0-1-0.449-1-1v-3h4.263C7.097,53.641,7,54.308,7,55s0.097,1.359,0.263,2H4z M15,61c-3.309,0-6-2.691-6-6s2.691-6,6-6    s6,2.691,6,6S18.309,61,15,61z M22.737,57C22.903,56.359,23,55.692,23,55s-0.097-1.359-0.263-2h18.527    C41.097,53.641,41,54.308,41,55s0.097,1.359,0.263,2H22.737z M49,61c-3.309,0-6-2.691-6-6s2.691-6,6-6s6,2.691,6,6    S52.309,61,49,61z M60,57h-3.263C56.903,56.359,57,55.692,57,55s-0.097-1.359-0.263-2H61v3C61,56.551,60.551,57,60,57z"/><rect height="2" width="2" x="35" y="5"/><rect height="2" width="2" x="39" y="5"/><rect height="2" width="2" x="43" y="5"/><rect height="2" width="8" x="27" y="45"/></g></g></svg>